<svg xmlns="http://www.w3.org/2000/svg" xmlns:xlink="http://www.w3.org/1999/xlink" width="954" zoomAndPan="magnify" viewBox="0 0 715.5 245.249991" height="327" preserveAspectRatio="xMidYMid meet" version="1.0"><defs><g/><clipPath id="f735787da3"><path d="M 0.839844 0 L 714.160156 0 L 714.160156 244.503906 L 0.839844 244.503906 Z M 0.839844 0 " clip-rule="nonzero"/></clipPath><clipPath id="4f67eebc7c"><path d="M 0.839844 0 L 714.160156 0 L 714.160156 244.503906 L 0.839844 244.503906 Z M 0.839844 0 " clip-rule="nonzero"/></clipPath><clipPath id="838c2281d0"><path d="M 12.058594 0 L 702.945312 0 C 705.917969 0 708.773438 1.183594 710.875 3.285156 C 712.976562 5.386719 714.160156 8.242188 714.160156 11.214844 L 714.160156 233.285156 C 714.160156 236.261719 712.976562 239.113281 710.875 241.21875 C 708.773438 243.320312 705.917969 244.503906 702.945312 244.503906 L 12.058594 244.503906 C 9.082031 244.503906 6.230469 243.320312 4.125 241.21875 C 2.023438 239.113281 0.839844 236.261719 0.839844 233.285156 L 0.839844 11.214844 C 0.839844 8.242188 2.023438 5.386719 4.125 3.285156 C 6.230469 1.183594 9.082031 0 12.058594 0 Z M 12.058594 0 " clip-rule="nonzero"/></clipPath><clipPath id="e3157ac971"><path d="M 64.1875 54.09375 L 213.730469 54.09375 L 213.730469 203.636719 L 64.1875 203.636719 Z M 64.1875 54.09375 " clip-rule="nonzero"/></clipPath></defs><g clip-path="url(#f735787da3)"><path fill="#ffffff" d="M 0.839844 0 L 714.160156 0 L 714.160156 244.503906 L 0.839844 244.503906 Z M 0.839844 0 " fill-opacity="1" fill-rule="nonzero"/><path fill="#240a24" d="M 0.839844 0 L 714.160156 0 L 714.160156 244.503906 L 0.839844 244.503906 Z M 0.839844 0 " fill-opacity="1" fill-rule="nonzero"/></g><g clip-path="url(#4f67eebc7c)"><g clip-path="url(#838c2281d0)"><path fill="#240a24" d="M 0.839844 0 L 714.160156 0 L 714.160156 244.503906 L 0.839844 244.503906 Z M 0.839844 0 " fill-opacity="1" fill-rule="nonzero"/></g></g><g fill="#ffffff" fill-opacity="1"><g transform="translate(304.459539, 98.203229)"><g><path d="M 28.109375 -14.6875 C 28.109375 -12.425781 27.828125 -10.367188 27.265625 -8.515625 C 26.703125 -6.660156 25.875 -5.070312 24.78125 -3.75 C 23.6875 -2.425781 22.335938 -1.398438 20.734375 -0.671875 C 19.128906 0.046875 17.289062 0.40625 15.21875 0.40625 C 13.039062 0.40625 11.144531 0.046875 9.53125 -0.671875 C 7.914062 -1.398438 6.570312 -2.425781 5.5 -3.75 C 4.4375 -5.070312 3.632812 -6.660156 3.09375 -8.515625 C 2.5625 -10.378906 2.296875 -12.445312 2.296875 -14.71875 C 2.296875 -16.988281 2.5625 -19.050781 3.09375 -20.90625 C 3.632812 -22.757812 4.4375 -24.335938 5.5 -25.640625 C 6.570312 -26.953125 7.921875 -27.960938 9.546875 -28.671875 C 11.179688 -29.390625 13.085938 -29.75 15.265625 -29.75 C 17.335938 -29.75 19.164062 -29.390625 20.75 -28.671875 C 22.34375 -27.960938 23.6875 -26.945312 24.78125 -25.625 C 25.875 -24.3125 26.703125 -22.726562 27.265625 -20.875 C 27.828125 -19.03125 28.109375 -16.96875 28.109375 -14.6875 Z M 6.859375 -14.6875 C 6.859375 -12.65625 7.003906 -10.84375 7.296875 -9.25 C 7.597656 -7.65625 8.082031 -6.304688 8.75 -5.203125 C 9.414062 -4.097656 10.28125 -3.253906 11.34375 -2.671875 C 12.40625 -2.085938 13.695312 -1.796875 15.21875 -1.796875 C 16.75 -1.796875 18.046875 -2.085938 19.109375 -2.671875 C 20.171875 -3.253906 21.03125 -4.097656 21.6875 -5.203125 C 22.34375 -6.304688 22.816406 -7.65625 23.109375 -9.25 C 23.410156 -10.84375 23.5625 -12.65625 23.5625 -14.6875 C 23.5625 -16.71875 23.410156 -18.53125 23.109375 -20.125 C 22.816406 -21.71875 22.34375 -23.0625 21.6875 -24.15625 C 21.03125 -25.257812 20.175781 -26.097656 19.125 -26.671875 C 18.070312 -27.242188 16.785156 -27.53125 15.265625 -27.53125 C 13.742188 -27.53125 12.445312 -27.242188 11.375 -26.671875 C 10.3125 -26.097656 9.441406 -25.257812 8.765625 -24.15625 C 8.085938 -23.0625 7.597656 -21.71875 7.296875 -20.125 C 7.003906 -18.53125 6.859375 -16.71875 6.859375 -14.6875 Z M 6.859375 -14.6875 "/></g></g><g transform="translate(334.913308, 98.203229)"><g><path d="M 1.0625 -1.71875 C 1.53125 -1.71875 1.96875 -1.75 2.375 -1.8125 C 2.78125 -1.882812 3.132812 -2.023438 3.4375 -2.234375 C 3.738281 -2.441406 3.976562 -2.738281 4.15625 -3.125 C 4.332031 -3.507812 4.421875 -4.023438 4.421875 -4.671875 L 4.421875 -26.671875 C 4.421875 -27.265625 4.332031 -27.742188 4.15625 -28.109375 C 3.976562 -28.484375 3.734375 -28.769531 3.421875 -28.96875 C 3.117188 -29.164062 2.765625 -29.296875 2.359375 -29.359375 C 1.953125 -29.421875 1.519531 -29.453125 1.0625 -29.453125 L 0.546875 -29.453125 L 0.546875 -31.171875 L 8.296875 -31.171875 L 8.296875 -4.671875 C 8.296875 -4.023438 8.378906 -3.507812 8.546875 -3.125 C 8.722656 -2.738281 8.960938 -2.441406 9.265625 -2.234375 C 9.578125 -2.023438 9.9375 -1.882812 10.34375 -1.8125 C 10.75 -1.75 11.1875 -1.71875 11.65625 -1.71875 L 12.1875 -1.71875 L 12.1875 0 L 0.546875 0 L 0.546875 -1.71875 Z M 1.0625 -1.71875 "/></g></g><g transform="translate(347.63577, 98.203229)"><g><path d="M 6.03125 -5.953125 C 6.03125 -4.671875 6.300781 -3.710938 6.84375 -3.078125 C 7.382812 -2.441406 8.222656 -2.125 9.359375 -2.125 C 10.179688 -2.125 10.929688 -2.253906 11.609375 -2.515625 C 12.285156 -2.785156 12.859375 -3.164062 13.328125 -3.65625 C 13.804688 -4.15625 14.171875 -4.757812 14.421875 -5.46875 C 14.679688 -6.175781 14.8125 -6.960938 14.8125 -7.828125 L 14.8125 -11.15625 L 12.1875 -11.046875 C 11.019531 -10.984375 10.046875 -10.835938 9.265625 -10.609375 C 8.484375 -10.378906 7.851562 -10.050781 7.375 -9.625 C 6.894531 -9.207031 6.550781 -8.691406 6.34375 -8.078125 C 6.132812 -7.460938 6.03125 -6.753906 6.03125 -5.953125 Z M 11 -20.359375 C 10.207031 -20.359375 9.566406 -20.242188 9.078125 -20.015625 C 8.597656 -19.796875 8.21875 -19.484375 7.9375 -19.078125 C 7.664062 -18.679688 7.484375 -18.207031 7.390625 -17.65625 C 7.296875 -17.113281 7.25 -16.523438 7.25 -15.890625 C 6.113281 -15.890625 5.25 -16.082031 4.65625 -16.46875 C 4.0625 -16.851562 3.765625 -17.519531 3.765625 -18.46875 C 3.765625 -19.175781 3.957031 -19.773438 4.34375 -20.265625 C 4.726562 -20.765625 5.257812 -21.171875 5.9375 -21.484375 C 6.613281 -21.796875 7.398438 -22.023438 8.296875 -22.171875 C 9.191406 -22.328125 10.144531 -22.40625 11.15625 -22.40625 C 12.414062 -22.40625 13.507812 -22.28125 14.4375 -22.03125 C 15.375 -21.78125 16.15625 -21.375 16.78125 -20.8125 C 17.414062 -20.25 17.890625 -19.515625 18.203125 -18.609375 C 18.515625 -17.710938 18.671875 -16.613281 18.671875 -15.3125 L 18.671875 -4.671875 C 18.671875 -4.097656 18.71875 -3.625 18.8125 -3.25 C 18.90625 -2.875 19.050781 -2.570312 19.25 -2.34375 C 19.445312 -2.113281 19.707031 -1.953125 20.03125 -1.859375 C 20.363281 -1.765625 20.757812 -1.71875 21.21875 -1.71875 L 21.34375 -1.71875 L 21.34375 0 L 15.78125 0 L 15.140625 -3.53125 L 14.8125 -3.53125 C 14.382812 -2.957031 13.96875 -2.425781 13.5625 -1.9375 C 13.164062 -1.457031 12.722656 -1.046875 12.234375 -0.703125 C 11.753906 -0.359375 11.210938 -0.0859375 10.609375 0.109375 C 10.003906 0.304688 9.273438 0.40625 8.421875 0.40625 C 7.503906 0.40625 6.65625 0.273438 5.875 0.015625 C 5.09375 -0.242188 4.414062 -0.644531 3.84375 -1.1875 C 3.28125 -1.726562 2.835938 -2.410156 2.515625 -3.234375 C 2.203125 -4.054688 2.046875 -5.03125 2.046875 -6.15625 C 2.046875 -8.332031 2.816406 -9.945312 4.359375 -11 C 5.910156 -12.050781 8.257812 -12.625 11.40625 -12.71875 L 14.8125 -12.84375 L 14.8125 -15.3125 C 14.8125 -16.039062 14.769531 -16.710938 14.6875 -17.328125 C 14.601562 -17.953125 14.425781 -18.488281 14.15625 -18.9375 C 13.894531 -19.382812 13.515625 -19.734375 13.015625 -19.984375 C 12.515625 -20.234375 11.84375 -20.359375 11 -20.359375 Z M 9.4375 -25.40625 C 9.75 -25.789062 10.066406 -26.234375 10.390625 -26.734375 C 10.722656 -27.242188 11.046875 -27.769531 11.359375 -28.3125 C 11.671875 -28.851562 11.96875 -29.394531 12.25 -29.9375 C 12.539062 -30.476562 12.796875 -30.976562 13.015625 -31.4375 L 17.390625 -31.4375 L 17.390625 -31.015625 C 17.140625 -30.648438 16.765625 -30.195312 16.265625 -29.65625 C 15.773438 -29.113281 15.226562 -28.550781 14.625 -27.96875 C 14.03125 -27.382812 13.414062 -26.8125 12.78125 -26.25 C 12.144531 -25.695312 11.550781 -25.234375 11 -24.859375 L 9.4375 -24.859375 Z M 9.4375 -25.40625 "/></g></g><g transform="translate(370.736557, 98.203229)"><g/></g><g transform="translate(381.395376, 98.203229)"><g><path d="M 7.953125 -1.71875 C 7.953125 -0.851562 7.832031 -0.015625 7.59375 0.796875 C 7.351562 1.617188 6.960938 2.375 6.421875 3.0625 C 5.878906 3.757812 5.179688 4.382812 4.328125 4.9375 C 3.484375 5.488281 2.445312 5.945312 1.21875 6.3125 L 1.21875 4.59375 C 2.570312 4.164062 3.5625 3.644531 4.1875 3.03125 C 4.8125 2.414062 5.125 1.707031 5.125 0.90625 C 5.125 0.632812 5.050781 0.40625 4.90625 0.21875 C 4.757812 0.0390625 4.570312 -0.113281 4.34375 -0.25 C 4.113281 -0.382812 3.875 -0.519531 3.625 -0.65625 C 3.375 -0.789062 3.132812 -0.953125 2.90625 -1.140625 C 2.675781 -1.328125 2.488281 -1.554688 2.34375 -1.828125 C 2.195312 -2.109375 2.125 -2.453125 2.125 -2.859375 C 2.125 -3.648438 2.378906 -4.253906 2.890625 -4.671875 C 3.410156 -5.085938 4.050781 -5.296875 4.8125 -5.296875 C 5.238281 -5.296875 5.640625 -5.21875 6.015625 -5.0625 C 6.390625 -4.90625 6.722656 -4.675781 7.015625 -4.375 C 7.304688 -4.070312 7.535156 -3.695312 7.703125 -3.25 C 7.867188 -2.800781 7.953125 -2.289062 7.953125 -1.71875 Z M 7.953125 -1.71875 "/></g></g><g transform="translate(391.653488, 98.203229)"><g/></g><g transform="translate(402.312307, 98.203229)"><g><path d="M 10.140625 0.40625 C 8.804688 0.40625 7.625 0.265625 6.59375 -0.015625 C 5.570312 -0.296875 4.71875 -0.6875 4.03125 -1.1875 C 3.34375 -1.6875 2.828125 -2.296875 2.484375 -3.015625 C 2.140625 -3.734375 1.96875 -4.519531 1.96875 -5.375 C 1.96875 -6.195312 2.222656 -6.863281 2.734375 -7.375 C 3.242188 -7.882812 3.972656 -8.140625 4.921875 -8.140625 C 4.960938 -7.285156 5.09375 -6.460938 5.3125 -5.671875 C 5.539062 -4.878906 5.875 -4.179688 6.3125 -3.578125 C 6.75 -2.984375 7.304688 -2.503906 7.984375 -2.140625 C 8.671875 -1.785156 9.492188 -1.609375 10.453125 -1.609375 C 12.296875 -1.609375 13.734375 -2.050781 14.765625 -2.9375 C 15.804688 -3.820312 16.328125 -5.097656 16.328125 -6.765625 C 16.328125 -7.515625 16.21875 -8.175781 16 -8.75 C 15.789062 -9.320312 15.4375 -9.851562 14.9375 -10.34375 C 14.445312 -10.832031 13.796875 -11.300781 12.984375 -11.75 C 12.179688 -12.195312 11.179688 -12.664062 9.984375 -13.15625 C 8.710938 -13.675781 7.601562 -14.234375 6.65625 -14.828125 C 5.707031 -15.429688 4.914062 -16.09375 4.28125 -16.8125 C 3.65625 -17.539062 3.1875 -18.351562 2.875 -19.25 C 2.570312 -20.144531 2.421875 -21.15625 2.421875 -22.28125 C 2.421875 -23.457031 2.644531 -24.503906 3.09375 -25.421875 C 3.539062 -26.347656 4.164062 -27.125 4.96875 -27.75 C 5.769531 -28.382812 6.71875 -28.867188 7.8125 -29.203125 C 8.90625 -29.546875 10.101562 -29.71875 11.40625 -29.71875 C 12.632812 -29.71875 13.722656 -29.585938 14.671875 -29.328125 C 15.617188 -29.078125 16.414062 -28.738281 17.0625 -28.3125 C 17.71875 -27.882812 18.21875 -27.390625 18.5625 -26.828125 C 18.90625 -26.273438 19.078125 -25.703125 19.078125 -25.109375 C 19.078125 -24.222656 18.785156 -23.554688 18.203125 -23.109375 C 17.617188 -22.660156 16.832031 -22.4375 15.84375 -22.4375 C 15.84375 -23.082031 15.765625 -23.710938 15.609375 -24.328125 C 15.460938 -24.953125 15.207031 -25.503906 14.84375 -25.984375 C 14.488281 -26.472656 14.015625 -26.867188 13.421875 -27.171875 C 12.835938 -27.484375 12.109375 -27.640625 11.234375 -27.640625 C 10.453125 -27.640625 9.75 -27.53125 9.125 -27.3125 C 8.5 -27.09375 7.972656 -26.78125 7.546875 -26.375 C 7.117188 -25.96875 6.789062 -25.476562 6.5625 -24.90625 C 6.34375 -24.332031 6.234375 -23.691406 6.234375 -22.984375 C 6.234375 -22.160156 6.335938 -21.4375 6.546875 -20.8125 C 6.765625 -20.195312 7.125 -19.640625 7.625 -19.140625 C 8.125 -18.640625 8.78125 -18.164062 9.59375 -17.71875 C 10.40625 -17.269531 11.410156 -16.804688 12.609375 -16.328125 C 13.804688 -15.835938 14.875 -15.316406 15.8125 -14.765625 C 16.757812 -14.210938 17.554688 -13.597656 18.203125 -12.921875 C 18.859375 -12.253906 19.359375 -11.503906 19.703125 -10.671875 C 20.054688 -9.835938 20.234375 -8.890625 20.234375 -7.828125 C 20.234375 -6.535156 19.992188 -5.378906 19.515625 -4.359375 C 19.046875 -3.335938 18.367188 -2.472656 17.484375 -1.765625 C 16.609375 -1.054688 15.546875 -0.515625 14.296875 -0.140625 C 13.054688 0.222656 11.671875 0.40625 10.140625 0.40625 Z M 10.140625 0.40625 "/></g></g><g transform="translate(424.631714, 98.203229)"><g><path d="M 21.421875 -11.046875 C 21.421875 -7.179688 20.601562 -4.304688 18.96875 -2.421875 C 17.332031 -0.535156 14.9375 0.40625 11.78125 0.40625 C 10.300781 0.40625 8.972656 0.171875 7.796875 -0.296875 C 6.617188 -0.765625 5.617188 -1.472656 4.796875 -2.421875 C 3.972656 -3.367188 3.34375 -4.5625 2.90625 -6 C 2.476562 -7.4375 2.265625 -9.117188 2.265625 -11.046875 C 2.265625 -14.878906 3.070312 -17.726562 4.6875 -19.59375 C 6.3125 -21.46875 8.71875 -22.40625 11.90625 -22.40625 C 13.382812 -22.40625 14.710938 -22.171875 15.890625 -21.703125 C 17.066406 -21.242188 18.0625 -20.539062 18.875 -19.59375 C 19.695312 -18.65625 20.328125 -17.472656 20.765625 -16.046875 C 21.203125 -14.628906 21.421875 -12.960938 21.421875 -11.046875 Z M 6.234375 -11.046875 C 6.234375 -9.515625 6.332031 -8.164062 6.53125 -7 C 6.726562 -5.84375 7.050781 -4.875 7.5 -4.09375 C 7.945312 -3.3125 8.523438 -2.71875 9.234375 -2.3125 C 9.953125 -1.914062 10.828125 -1.71875 11.859375 -1.71875 C 12.890625 -1.71875 13.757812 -1.914062 14.46875 -2.3125 C 15.175781 -2.71875 15.75 -3.3125 16.1875 -4.09375 C 16.625 -4.875 16.941406 -5.84375 17.140625 -7 C 17.335938 -8.164062 17.4375 -9.515625 17.4375 -11.046875 C 17.4375 -12.566406 17.332031 -13.898438 17.125 -15.046875 C 16.925781 -16.191406 16.601562 -17.148438 16.15625 -17.921875 C 15.71875 -18.691406 15.140625 -19.269531 14.421875 -19.65625 C 13.710938 -20.039062 12.847656 -20.234375 11.828125 -20.234375 C 10.796875 -20.234375 9.925781 -20.039062 9.21875 -19.65625 C 8.507812 -19.269531 7.929688 -18.691406 7.484375 -17.921875 C 7.046875 -17.148438 6.726562 -16.191406 6.53125 -15.046875 C 6.332031 -13.898438 6.234375 -12.566406 6.234375 -11.046875 Z M 6.234375 -11.046875 "/></g></g><g transform="translate(448.313527, 98.203229)"><g><path d="M 21.625 -4.46875 C 21.625 -3.863281 21.710938 -3.378906 21.890625 -3.015625 C 22.066406 -2.648438 22.304688 -2.375 22.609375 -2.1875 C 22.921875 -2 23.28125 -1.875 23.6875 -1.8125 C 24.09375 -1.75 24.523438 -1.71875 24.984375 -1.71875 L 25.109375 -1.71875 L 25.109375 0 L 18.59375 0 L 18.046875 -3.328125 L 17.84375 -3.328125 C 17.4375 -2.546875 16.984375 -1.914062 16.484375 -1.4375 C 15.984375 -0.957031 15.453125 -0.582031 14.890625 -0.3125 C 14.328125 -0.0390625 13.738281 0.144531 13.125 0.25 C 12.507812 0.351562 11.867188 0.40625 11.203125 0.40625 C 10.117188 0.40625 9.15625 0.253906 8.3125 -0.046875 C 7.46875 -0.359375 6.757812 -0.84375 6.1875 -1.5 C 5.613281 -2.15625 5.175781 -2.988281 4.875 -4 C 4.570312 -5.019531 4.421875 -6.234375 4.421875 -7.640625 L 4.421875 -17.46875 C 4.421875 -18.070312 4.332031 -18.554688 4.15625 -18.921875 C 3.976562 -19.285156 3.734375 -19.566406 3.421875 -19.765625 C 3.117188 -19.972656 2.765625 -20.109375 2.359375 -20.171875 C 1.953125 -20.242188 1.519531 -20.28125 1.0625 -20.28125 L 0.9375 -20.28125 L 0.9375 -22 L 8.296875 -22 L 8.296875 -7.828125 C 8.296875 -6.929688 8.363281 -6.132812 8.5 -5.4375 C 8.644531 -4.75 8.878906 -4.164062 9.203125 -3.6875 C 9.535156 -3.207031 9.976562 -2.84375 10.53125 -2.59375 C 11.082031 -2.34375 11.773438 -2.21875 12.609375 -2.21875 C 13.515625 -2.21875 14.289062 -2.378906 14.9375 -2.703125 C 15.582031 -3.023438 16.113281 -3.472656 16.53125 -4.046875 C 16.957031 -4.628906 17.269531 -5.328125 17.46875 -6.140625 C 17.664062 -6.960938 17.765625 -7.867188 17.765625 -8.859375 L 17.765625 -17.3125 C 17.765625 -17.945312 17.675781 -18.460938 17.5 -18.859375 C 17.320312 -19.253906 17.082031 -19.554688 16.78125 -19.765625 C 16.476562 -19.972656 16.125 -20.109375 15.71875 -20.171875 C 15.3125 -20.242188 14.875 -20.28125 14.40625 -20.28125 L 14.28125 -20.28125 L 14.28125 -22 L 21.625 -22 Z M 21.625 -4.46875 "/></g></g><g transform="translate(474.359514, 98.203229)"><g/></g><g transform="translate(485.018333, 98.203229)"><g><path d="M 21.421875 -11.046875 C 21.421875 -7.179688 20.601562 -4.304688 18.96875 -2.421875 C 17.332031 -0.535156 14.9375 0.40625 11.78125 0.40625 C 10.300781 0.40625 8.972656 0.171875 7.796875 -0.296875 C 6.617188 -0.765625 5.617188 -1.472656 4.796875 -2.421875 C 3.972656 -3.367188 3.34375 -4.5625 2.90625 -6 C 2.476562 -7.4375 2.265625 -9.117188 2.265625 -11.046875 C 2.265625 -14.878906 3.070312 -17.726562 4.6875 -19.59375 C 6.3125 -21.46875 8.71875 -22.40625 11.90625 -22.40625 C 13.382812 -22.40625 14.710938 -22.171875 15.890625 -21.703125 C 17.066406 -21.242188 18.0625 -20.539062 18.875 -19.59375 C 19.695312 -18.65625 20.328125 -17.472656 20.765625 -16.046875 C 21.203125 -14.628906 21.421875 -12.960938 21.421875 -11.046875 Z M 6.234375 -11.046875 C 6.234375 -9.515625 6.332031 -8.164062 6.53125 -7 C 6.726562 -5.84375 7.050781 -4.875 7.5 -4.09375 C 7.945312 -3.3125 8.523438 -2.71875 9.234375 -2.3125 C 9.953125 -1.914062 10.828125 -1.71875 11.859375 -1.71875 C 12.890625 -1.71875 13.757812 -1.914062 14.46875 -2.3125 C 15.175781 -2.71875 15.75 -3.3125 16.1875 -4.09375 C 16.625 -4.875 16.941406 -5.84375 17.140625 -7 C 17.335938 -8.164062 17.4375 -9.515625 17.4375 -11.046875 C 17.4375 -12.566406 17.332031 -13.898438 17.125 -15.046875 C 16.925781 -16.191406 16.601562 -17.148438 16.15625 -17.921875 C 15.71875 -18.691406 15.140625 -19.269531 14.421875 -19.65625 C 13.710938 -20.039062 12.847656 -20.234375 11.828125 -20.234375 C 10.796875 -20.234375 9.925781 -20.039062 9.21875 -19.65625 C 8.507812 -19.269531 7.929688 -18.691406 7.484375 -17.921875 C 7.046875 -17.148438 6.726562 -16.191406 6.53125 -15.046875 C 6.332031 -13.898438 6.234375 -12.566406 6.234375 -11.046875 Z M 6.234375 -11.046875 "/></g></g><g transform="translate(508.700146, 98.203229)"><g/></g><g transform="translate(519.358966, 98.203229)"><g><path d="M 16.453125 0.40625 C 14.066406 0.40625 11.988281 0.046875 10.21875 -0.671875 C 8.457031 -1.398438 6.988281 -2.425781 5.8125 -3.75 C 4.644531 -5.070312 3.773438 -6.660156 3.203125 -8.515625 C 2.628906 -10.367188 2.34375 -12.425781 2.34375 -14.6875 C 2.34375 -16.90625 2.644531 -18.9375 3.25 -20.78125 C 3.863281 -22.625 4.773438 -24.203125 5.984375 -25.515625 C 7.191406 -26.835938 8.6875 -27.867188 10.46875 -28.609375 C 12.257812 -29.347656 14.335938 -29.71875 16.703125 -29.71875 C 18.234375 -29.71875 19.5625 -29.597656 20.6875 -29.359375 C 21.8125 -29.128906 22.75 -28.804688 23.5 -28.390625 C 24.257812 -27.972656 24.828125 -27.484375 25.203125 -26.921875 C 25.578125 -26.359375 25.765625 -25.753906 25.765625 -25.109375 C 25.765625 -24.660156 25.660156 -24.257812 25.453125 -23.90625 C 25.253906 -23.550781 24.984375 -23.25 24.640625 -23 C 24.304688 -22.757812 23.910156 -22.570312 23.453125 -22.4375 C 22.992188 -22.300781 22.492188 -22.234375 21.953125 -22.234375 C 21.953125 -22.878906 21.859375 -23.515625 21.671875 -24.140625 C 21.484375 -24.765625 21.175781 -25.328125 20.75 -25.828125 C 20.320312 -26.335938 19.757812 -26.75 19.0625 -27.0625 C 18.375 -27.375 17.53125 -27.53125 16.53125 -27.53125 C 14.789062 -27.53125 13.3125 -27.242188 12.09375 -26.671875 C 10.875 -26.109375 9.875 -25.28125 9.09375 -24.1875 C 8.320312 -23.101562 7.757812 -21.757812 7.40625 -20.15625 C 7.0625 -18.5625 6.890625 -16.738281 6.890625 -14.6875 C 6.890625 -12.644531 7.066406 -10.828125 7.421875 -9.234375 C 7.785156 -7.648438 8.375 -6.316406 9.1875 -5.234375 C 10.007812 -4.148438 11.066406 -3.328125 12.359375 -2.765625 C 13.660156 -2.203125 15.242188 -1.921875 17.109375 -1.921875 C 17.898438 -1.921875 18.664062 -1.957031 19.40625 -2.03125 C 20.144531 -2.113281 20.800781 -2.242188 21.375 -2.421875 L 21.375 -9.03125 C 21.375 -9.632812 21.285156 -10.117188 21.109375 -10.484375 C 20.929688 -10.859375 20.6875 -11.140625 20.375 -11.328125 C 20.070312 -11.523438 19.710938 -11.65625 19.296875 -11.71875 C 18.890625 -11.789062 18.460938 -11.828125 18.015625 -11.828125 L 17.84375 -11.828125 L 17.84375 -13.546875 L 28.515625 -13.546875 L 28.515625 -11.828125 L 28.34375 -11.828125 C 27.957031 -11.828125 27.585938 -11.789062 27.234375 -11.71875 C 26.890625 -11.65625 26.59375 -11.519531 26.34375 -11.3125 C 26.09375 -11.101562 25.894531 -10.800781 25.75 -10.40625 C 25.601562 -10.007812 25.53125 -9.492188 25.53125 -8.859375 L 25.53125 -1.484375 C 24.144531 -0.835938 22.722656 -0.359375 21.265625 -0.046875 C 19.816406 0.253906 18.210938 0.40625 16.453125 0.40625 Z M 16.453125 0.40625 "/></g></g><g transform="translate(548.650683, 98.203229)"><g><path d="M 6.03125 -5.953125 C 6.03125 -4.671875 6.300781 -3.710938 6.84375 -3.078125 C 7.382812 -2.441406 8.222656 -2.125 9.359375 -2.125 C 10.179688 -2.125 10.929688 -2.253906 11.609375 -2.515625 C 12.285156 -2.785156 12.859375 -3.164062 13.328125 -3.65625 C 13.804688 -4.15625 14.171875 -4.757812 14.421875 -5.46875 C 14.679688 -6.175781 14.8125 -6.960938 14.8125 -7.828125 L 14.8125 -11.15625 L 12.1875 -11.046875 C 11.019531 -10.984375 10.046875 -10.835938 9.265625 -10.609375 C 8.484375 -10.378906 7.851562 -10.050781 7.375 -9.625 C 6.894531 -9.207031 6.550781 -8.691406 6.34375 -8.078125 C 6.132812 -7.460938 6.03125 -6.753906 6.03125 -5.953125 Z M 11 -20.359375 C 10.207031 -20.359375 9.566406 -20.242188 9.078125 -20.015625 C 8.597656 -19.796875 8.21875 -19.484375 7.9375 -19.078125 C 7.664062 -18.679688 7.484375 -18.207031 7.390625 -17.65625 C 7.296875 -17.113281 7.25 -16.523438 7.25 -15.890625 C 6.113281 -15.890625 5.25 -16.082031 4.65625 -16.46875 C 4.0625 -16.851562 3.765625 -17.519531 3.765625 -18.46875 C 3.765625 -19.175781 3.957031 -19.773438 4.34375 -20.265625 C 4.726562 -20.765625 5.257812 -21.171875 5.9375 -21.484375 C 6.613281 -21.796875 7.398438 -22.023438 8.296875 -22.171875 C 9.191406 -22.328125 10.144531 -22.40625 11.15625 -22.40625 C 12.414062 -22.40625 13.507812 -22.28125 14.4375 -22.03125 C 15.375 -21.78125 16.15625 -21.375 16.78125 -20.8125 C 17.414062 -20.25 17.890625 -19.515625 18.203125 -18.609375 C 18.515625 -17.710938 18.671875 -16.613281 18.671875 -15.3125 L 18.671875 -4.671875 C 18.671875 -4.097656 18.71875 -3.625 18.8125 -3.25 C 18.90625 -2.875 19.050781 -2.570312 19.25 -2.34375 C 19.445312 -2.113281 19.707031 -1.953125 20.03125 -1.859375 C 20.363281 -1.765625 20.757812 -1.71875 21.21875 -1.71875 L 21.34375 -1.71875 L 21.34375 0 L 15.78125 0 L 15.140625 -3.53125 L 14.8125 -3.53125 C 14.382812 -2.957031 13.96875 -2.425781 13.5625 -1.9375 C 13.164062 -1.457031 12.722656 -1.046875 12.234375 -0.703125 C 11.753906 -0.359375 11.210938 -0.0859375 10.609375 0.109375 C 10.003906 0.304688 9.273438 0.40625 8.421875 0.40625 C 7.503906 0.40625 6.65625 0.273438 5.875 0.015625 C 5.09375 -0.242188 4.414062 -0.644531 3.84375 -1.1875 C 3.28125 -1.726562 2.835938 -2.410156 2.515625 -3.234375 C 2.203125 -4.054688 2.046875 -5.03125 2.046875 -6.15625 C 2.046875 -8.332031 2.816406 -9.945312 4.359375 -11 C 5.910156 -12.050781 8.257812 -12.625 11.40625 -12.71875 L 14.8125 -12.84375 L 14.8125 -15.3125 C 14.8125 -16.039062 14.769531 -16.710938 14.6875 -17.328125 C 14.601562 -17.953125 14.425781 -18.488281 14.15625 -18.9375 C 13.894531 -19.382812 13.515625 -19.734375 13.015625 -19.984375 C 12.515625 -20.234375 11.84375 -20.359375 11 -20.359375 Z M 11 -20.359375 "/></g></g><g transform="translate(571.75147, 98.203229)"><g><path d="M 22.9375 -11.046875 C 22.9375 -9.066406 22.753906 -7.351562 22.390625 -5.90625 C 22.023438 -4.46875 21.488281 -3.28125 20.78125 -2.34375 C 20.070312 -1.40625 19.195312 -0.710938 18.15625 -0.265625 C 17.113281 0.179688 15.914062 0.40625 14.5625 0.40625 C 13.78125 0.40625 13.066406 0.316406 12.421875 0.140625 C 11.773438 -0.0351562 11.195312 -0.28125 10.6875 -0.59375 C 10.175781 -0.914062 9.722656 -1.296875 9.328125 -1.734375 C 8.929688 -2.179688 8.585938 -2.671875 8.296875 -3.203125 L 8.03125 -3.203125 L 7.3125 0 L 0.734375 0 L 0.734375 -1.71875 L 1.0625 -1.71875 C 1.53125 -1.71875 1.96875 -1.75 2.375 -1.8125 C 2.78125 -1.882812 3.132812 -2.023438 3.4375 -2.234375 C 3.738281 -2.441406 3.976562 -2.738281 4.15625 -3.125 C 4.332031 -3.507812 4.421875 -4.023438 4.421875 -4.671875 L 4.421875 -26.671875 C 4.421875 -27.265625 4.332031 -27.742188 4.15625 -28.109375 C 3.976562 -28.484375 3.734375 -28.769531 3.421875 -28.96875 C 3.117188 -29.164062 2.765625 -29.296875 2.359375 -29.359375 C 1.953125 -29.421875 1.519531 -29.453125 1.0625 -29.453125 L 0.734375 -29.453125 L 0.734375 -31.171875 L 8.296875 -31.171875 L 8.296875 -23.640625 C 8.296875 -23.171875 8.285156 -22.628906 8.265625 -22.015625 C 8.253906 -21.410156 8.238281 -20.832031 8.21875 -20.28125 C 8.1875 -19.632812 8.160156 -18.972656 8.140625 -18.296875 L 8.296875 -18.296875 C 8.597656 -18.921875 8.941406 -19.484375 9.328125 -19.984375 C 9.722656 -20.492188 10.171875 -20.925781 10.671875 -21.28125 C 11.179688 -21.632812 11.753906 -21.910156 12.390625 -22.109375 C 13.035156 -22.304688 13.757812 -22.40625 14.5625 -22.40625 C 15.914062 -22.40625 17.113281 -22.179688 18.15625 -21.734375 C 19.195312 -21.285156 20.070312 -20.59375 20.78125 -19.65625 C 21.488281 -18.726562 22.023438 -17.550781 22.390625 -16.125 C 22.753906 -14.695312 22.9375 -13.003906 22.9375 -11.046875 Z M 13.859375 -19.78125 C 12.796875 -19.78125 11.90625 -19.601562 11.1875 -19.25 C 10.476562 -18.894531 9.90625 -18.351562 9.46875 -17.625 C 9.039062 -16.90625 8.738281 -16 8.5625 -14.90625 C 8.382812 -13.8125 8.296875 -12.523438 8.296875 -11.046875 C 8.296875 -9.609375 8.382812 -8.34375 8.5625 -7.25 C 8.738281 -6.15625 9.046875 -5.234375 9.484375 -4.484375 C 9.921875 -3.734375 10.492188 -3.164062 11.203125 -2.78125 C 11.921875 -2.40625 12.820312 -2.21875 13.90625 -2.21875 C 14.8125 -2.21875 15.582031 -2.40625 16.21875 -2.78125 C 16.851562 -3.164062 17.375 -3.734375 17.78125 -4.484375 C 18.1875 -5.234375 18.484375 -6.160156 18.671875 -7.265625 C 18.859375 -8.367188 18.953125 -9.640625 18.953125 -11.078125 C 18.953125 -12.535156 18.859375 -13.804688 18.671875 -14.890625 C 18.484375 -15.984375 18.1875 -16.890625 17.78125 -17.609375 C 17.375 -18.328125 16.84375 -18.867188 16.1875 -19.234375 C 15.539062 -19.597656 14.765625 -19.78125 13.859375 -19.78125 Z M 13.859375 -19.78125 "/></g></g><g transform="translate(596.935935, 98.203229)"><g><path d="M 13.203125 0 L 1.359375 0 L 1.359375 -1.71875 L 1.484375 -1.71875 C 1.953125 -1.71875 2.390625 -1.75 2.796875 -1.8125 C 3.203125 -1.882812 3.554688 -2.023438 3.859375 -2.234375 C 4.160156 -2.441406 4.398438 -2.738281 4.578125 -3.125 C 4.753906 -3.507812 4.84375 -4.023438 4.84375 -4.671875 L 4.84375 -17.46875 C 4.84375 -18.070312 4.753906 -18.554688 4.578125 -18.921875 C 4.398438 -19.285156 4.15625 -19.566406 3.84375 -19.765625 C 3.539062 -19.972656 3.179688 -20.109375 2.765625 -20.171875 C 2.359375 -20.242188 1.929688 -20.28125 1.484375 -20.28125 L 1.359375 -20.28125 L 1.359375 -22 L 7.671875 -22 L 8.453125 -17.9375 L 8.65625 -17.9375 C 8.925781 -18.550781 9.195312 -19.125 9.46875 -19.65625 C 9.75 -20.195312 10.09375 -20.671875 10.5 -21.078125 C 10.914062 -21.492188 11.421875 -21.816406 12.015625 -22.046875 C 12.617188 -22.285156 13.375 -22.40625 14.28125 -22.40625 C 15.78125 -22.40625 16.894531 -22.144531 17.625 -21.625 C 18.351562 -21.101562 18.71875 -20.363281 18.71875 -19.40625 C 18.71875 -18.976562 18.644531 -18.582031 18.5 -18.21875 C 18.363281 -17.863281 18.140625 -17.554688 17.828125 -17.296875 C 17.523438 -17.035156 17.128906 -16.832031 16.640625 -16.6875 C 16.160156 -16.550781 15.578125 -16.484375 14.890625 -16.484375 C 14.890625 -17.617188 14.726562 -18.4375 14.40625 -18.9375 C 14.082031 -19.4375 13.519531 -19.6875 12.71875 -19.6875 C 12.207031 -19.6875 11.753906 -19.539062 11.359375 -19.25 C 10.960938 -18.96875 10.613281 -18.585938 10.3125 -18.109375 C 10.007812 -17.640625 9.753906 -17.097656 9.546875 -16.484375 C 9.335938 -15.867188 9.171875 -15.238281 9.046875 -14.59375 C 8.921875 -13.945312 8.828125 -13.300781 8.765625 -12.65625 C 8.710938 -12.019531 8.6875 -11.441406 8.6875 -10.921875 L 8.6875 -4.46875 C 8.6875 -3.863281 8.773438 -3.378906 8.953125 -3.015625 C 9.140625 -2.648438 9.382812 -2.375 9.6875 -2.1875 C 10 -2 10.359375 -1.875 10.765625 -1.8125 C 11.171875 -1.75 11.601562 -1.71875 12.0625 -1.71875 L 13.203125 -1.71875 Z M 13.203125 0 "/></g></g><g transform="translate(616.270072, 98.203229)"><g><path d="M 1.484375 -1.71875 C 1.929688 -1.71875 2.359375 -1.75 2.765625 -1.8125 C 3.179688 -1.875 3.539062 -2 3.84375 -2.1875 C 4.15625 -2.375 4.398438 -2.648438 4.578125 -3.015625 C 4.753906 -3.378906 4.84375 -3.863281 4.84375 -4.46875 L 4.84375 -17.46875 C 4.84375 -18.070312 4.753906 -18.554688 4.578125 -18.921875 C 4.398438 -19.285156 4.15625 -19.566406 3.84375 -19.765625 C 3.539062 -19.972656 3.179688 -20.109375 2.765625 -20.171875 C 2.359375 -20.242188 1.929688 -20.28125 1.484375 -20.28125 L 1.359375 -20.28125 L 1.359375 -22 L 8.6875 -22 L 8.6875 -4.671875 C 8.6875 -4.023438 8.773438 -3.507812 8.953125 -3.125 C 9.140625 -2.738281 9.382812 -2.441406 9.6875 -2.234375 C 9.988281 -2.023438 10.34375 -1.882812 10.75 -1.8125 C 11.164062 -1.75 11.601562 -1.71875 12.0625 -1.71875 L 12.609375 -1.71875 L 12.609375 0 L 0.9375 0 L 0.9375 -1.71875 Z M 4.265625 -28.65625 C 4.265625 -29.132812 4.320312 -29.53125 4.4375 -29.84375 C 4.5625 -30.164062 4.726562 -30.425781 4.9375 -30.625 C 5.15625 -30.832031 5.40625 -30.972656 5.6875 -31.046875 C 5.96875 -31.128906 6.273438 -31.171875 6.609375 -31.171875 C 6.929688 -31.171875 7.234375 -31.128906 7.515625 -31.046875 C 7.796875 -30.972656 8.039062 -30.832031 8.25 -30.625 C 8.457031 -30.425781 8.625 -30.164062 8.75 -29.84375 C 8.875 -29.53125 8.9375 -29.132812 8.9375 -28.65625 C 8.9375 -28.164062 8.875 -27.757812 8.75 -27.4375 C 8.625 -27.125 8.457031 -26.863281 8.25 -26.65625 C 8.039062 -26.457031 7.796875 -26.316406 7.515625 -26.234375 C 7.234375 -26.148438 6.929688 -26.109375 6.609375 -26.109375 C 6.273438 -26.109375 5.96875 -26.148438 5.6875 -26.234375 C 5.40625 -26.316406 5.15625 -26.457031 4.9375 -26.65625 C 4.726562 -26.863281 4.5625 -27.125 4.4375 -27.4375 C 4.320312 -27.757812 4.265625 -28.164062 4.265625 -28.65625 Z M 4.265625 -28.65625 "/></g></g><g transform="translate(629.393242, 98.203229)"><g><path d="M 11.28125 -20.1875 C 9.757812 -20.1875 8.585938 -19.566406 7.765625 -18.328125 C 6.941406 -17.097656 6.457031 -15.296875 6.3125 -12.921875 L 15.75 -12.921875 C 15.75 -14.003906 15.664062 -14.992188 15.5 -15.890625 C 15.34375 -16.785156 15.085938 -17.550781 14.734375 -18.1875 C 14.390625 -18.832031 13.929688 -19.328125 13.359375 -19.671875 C 12.796875 -20.015625 12.101562 -20.1875 11.28125 -20.1875 Z M 11.78125 0.40625 C 10.300781 0.40625 8.96875 0.15625 7.78125 -0.34375 C 6.601562 -0.851562 5.601562 -1.585938 4.78125 -2.546875 C 3.96875 -3.503906 3.34375 -4.679688 2.90625 -6.078125 C 2.476562 -7.472656 2.265625 -9.0625 2.265625 -10.84375 C 2.265625 -14.675781 3.050781 -17.5625 4.625 -19.5 C 6.195312 -21.4375 8.441406 -22.40625 11.359375 -22.40625 C 12.679688 -22.40625 13.867188 -22.195312 14.921875 -21.78125 C 15.984375 -21.363281 16.878906 -20.742188 17.609375 -19.921875 C 18.347656 -19.097656 18.910156 -18.078125 19.296875 -16.859375 C 19.691406 -15.640625 19.890625 -14.222656 19.890625 -12.609375 L 19.890625 -10.71875 L 6.234375 -10.71875 C 6.253906 -9.21875 6.398438 -7.929688 6.671875 -6.859375 C 6.953125 -5.785156 7.347656 -4.898438 7.859375 -4.203125 C 8.378906 -3.515625 9.007812 -3.003906 9.75 -2.671875 C 10.5 -2.347656 11.363281 -2.1875 12.34375 -2.1875 C 13.050781 -2.1875 13.707031 -2.265625 14.3125 -2.421875 C 14.914062 -2.585938 15.460938 -2.800781 15.953125 -3.0625 C 16.453125 -3.332031 16.890625 -3.632812 17.265625 -3.96875 C 17.648438 -4.3125 17.96875 -4.671875 18.21875 -5.046875 C 18.394531 -4.960938 18.566406 -4.796875 18.734375 -4.546875 C 18.910156 -4.296875 19 -3.992188 19 -3.640625 C 19 -3.234375 18.847656 -2.789062 18.546875 -2.3125 C 18.253906 -1.84375 17.804688 -1.40625 17.203125 -1 C 16.609375 -0.601562 15.859375 -0.269531 14.953125 0 C 14.054688 0.269531 13 0.40625 11.78125 0.40625 Z M 11.78125 0.40625 "/></g></g><g transform="translate(651.352012, 98.203229)"><g><path d="M 1.0625 -1.71875 C 1.53125 -1.71875 1.96875 -1.75 2.375 -1.8125 C 2.78125 -1.882812 3.132812 -2.023438 3.4375 -2.234375 C 3.738281 -2.441406 3.976562 -2.738281 4.15625 -3.125 C 4.332031 -3.507812 4.421875 -4.023438 4.421875 -4.671875 L 4.421875 -26.671875 C 4.421875 -27.265625 4.332031 -27.742188 4.15625 -28.109375 C 3.976562 -28.484375 3.734375 -28.769531 3.421875 -28.96875 C 3.117188 -29.164062 2.765625 -29.296875 2.359375 -29.359375 C 1.953125 -29.421875 1.519531 -29.453125 1.0625 -29.453125 L 0.546875 -29.453125 L 0.546875 -31.171875 L 8.296875 -31.171875 L 8.296875 -4.671875 C 8.296875 -4.023438 8.378906 -3.507812 8.546875 -3.125 C 8.722656 -2.738281 8.960938 -2.441406 9.265625 -2.234375 C 9.578125 -2.023438 9.9375 -1.882812 10.34375 -1.8125 C 10.75 -1.75 11.1875 -1.71875 11.65625 -1.71875 L 12.1875 -1.71875 L 12.1875 0 L 0.546875 0 L 0.546875 -1.71875 Z M 1.0625 -1.71875 "/></g></g></g><g fill="#ffffff" fill-opacity="1"><g transform="translate(664.085266, 98.203229)"><g/></g></g><g fill="#ffffff" fill-opacity="1"><g transform="translate(414.560201, 147.798974)"><g><path d="M 15.046875 -14.3125 C 15.046875 -13.707031 14.960938 -13.175781 14.796875 -12.71875 C 14.628906 -12.269531 14.394531 -11.875 14.09375 -11.53125 C 13.800781 -11.195312 13.453125 -10.914062 13.046875 -10.6875 C 12.640625 -10.457031 12.203125 -10.265625 11.734375 -10.109375 L 11.734375 -10 C 12.347656 -9.894531 12.90625 -9.710938 13.40625 -9.453125 C 13.90625 -9.203125 14.335938 -8.875 14.703125 -8.46875 C 15.066406 -8.070312 15.347656 -7.597656 15.546875 -7.046875 C 15.742188 -6.492188 15.84375 -5.863281 15.84375 -5.15625 C 15.84375 -3.4375 15.273438 -2.144531 14.140625 -1.28125 C 13.015625 -0.425781 11.296875 0 8.984375 0 L 1.015625 0 L 1.015625 -1.125 L 1.359375 -1.125 C 1.660156 -1.125 1.941406 -1.144531 2.203125 -1.1875 C 2.472656 -1.226562 2.707031 -1.316406 2.90625 -1.453125 C 3.113281 -1.585938 3.269531 -1.78125 3.375 -2.03125 C 3.488281 -2.289062 3.546875 -2.628906 3.546875 -3.046875 L 3.546875 -16.140625 C 3.546875 -16.535156 3.488281 -16.851562 3.375 -17.09375 C 3.257812 -17.332031 3.097656 -17.515625 2.890625 -17.640625 C 2.691406 -17.773438 2.457031 -17.863281 2.1875 -17.90625 C 1.925781 -17.945312 1.648438 -17.96875 1.359375 -17.96875 L 1.015625 -17.96875 L 1.015625 -19.078125 L 8.1875 -19.078125 C 10.5 -19.078125 12.21875 -18.691406 13.34375 -17.921875 C 14.476562 -17.160156 15.046875 -15.957031 15.046875 -14.3125 Z M 6.25 -1.328125 L 8.84375 -1.328125 C 9.601562 -1.328125 10.242188 -1.394531 10.765625 -1.53125 C 11.285156 -1.675781 11.710938 -1.898438 12.046875 -2.203125 C 12.378906 -2.515625 12.617188 -2.921875 12.765625 -3.421875 C 12.910156 -3.921875 12.984375 -4.523438 12.984375 -5.234375 C 12.984375 -5.929688 12.914062 -6.535156 12.78125 -7.046875 C 12.65625 -7.554688 12.429688 -7.984375 12.109375 -8.328125 C 11.796875 -8.671875 11.378906 -8.921875 10.859375 -9.078125 C 10.335938 -9.242188 9.6875 -9.328125 8.90625 -9.328125 L 6.25 -9.328125 Z M 6.25 -10.671875 L 8.109375 -10.671875 C 8.890625 -10.671875 9.539062 -10.738281 10.0625 -10.875 C 10.582031 -11.007812 11 -11.222656 11.3125 -11.515625 C 11.625 -11.804688 11.847656 -12.179688 11.984375 -12.640625 C 12.117188 -13.109375 12.1875 -13.664062 12.1875 -14.3125 C 12.1875 -14.957031 12.113281 -15.5 11.96875 -15.9375 C 11.820312 -16.382812 11.582031 -16.738281 11.25 -17 C 10.914062 -17.269531 10.484375 -17.460938 9.953125 -17.578125 C 9.429688 -17.691406 8.796875 -17.75 8.046875 -17.75 L 6.25 -17.75 Z M 6.25 -10.671875 "/></g></g></g><g fill="#ffffff" fill-opacity="1"><g transform="translate(432.032894, 147.798974)"><g><path d="M 3.921875 -3.875 C 3.921875 -3.039062 4.097656 -2.414062 4.453125 -2 C 4.804688 -1.59375 5.351562 -1.390625 6.09375 -1.390625 C 6.632812 -1.390625 7.125 -1.472656 7.5625 -1.640625 C 8 -1.816406 8.375 -2.066406 8.6875 -2.390625 C 9 -2.710938 9.234375 -3.101562 9.390625 -3.5625 C 9.554688 -4.019531 9.640625 -4.535156 9.640625 -5.109375 L 9.640625 -7.265625 L 7.9375 -7.1875 C 7.175781 -7.15625 6.539062 -7.0625 6.03125 -6.90625 C 5.53125 -6.757812 5.117188 -6.546875 4.796875 -6.265625 C 4.484375 -5.992188 4.257812 -5.65625 4.125 -5.25 C 3.988281 -4.851562 3.921875 -4.394531 3.921875 -3.875 Z M 7.171875 -13.265625 C 6.648438 -13.265625 6.226562 -13.191406 5.90625 -13.046875 C 5.59375 -12.898438 5.347656 -12.695312 5.171875 -12.4375 C 4.992188 -12.175781 4.875 -11.867188 4.8125 -11.515625 C 4.75 -11.160156 4.71875 -10.773438 4.71875 -10.359375 C 3.976562 -10.359375 3.414062 -10.484375 3.03125 -10.734375 C 2.644531 -10.984375 2.453125 -11.414062 2.453125 -12.03125 C 2.453125 -12.5 2.578125 -12.890625 2.828125 -13.203125 C 3.085938 -13.523438 3.4375 -13.789062 3.875 -14 C 4.3125 -14.207031 4.820312 -14.359375 5.40625 -14.453125 C 5.988281 -14.546875 6.609375 -14.59375 7.265625 -14.59375 C 8.085938 -14.59375 8.800781 -14.507812 9.40625 -14.34375 C 10.019531 -14.1875 10.53125 -13.925781 10.9375 -13.5625 C 11.34375 -13.195312 11.648438 -12.71875 11.859375 -12.125 C 12.066406 -11.539062 12.171875 -10.820312 12.171875 -9.96875 L 12.171875 -3.046875 C 12.171875 -2.671875 12.195312 -2.359375 12.25 -2.109375 C 12.3125 -1.867188 12.40625 -1.675781 12.53125 -1.53125 C 12.664062 -1.382812 12.835938 -1.28125 13.046875 -1.21875 C 13.265625 -1.15625 13.523438 -1.125 13.828125 -1.125 L 13.90625 -1.125 L 13.90625 0 L 10.28125 0 L 9.875 -2.296875 L 9.640625 -2.296875 C 9.367188 -1.921875 9.101562 -1.578125 8.84375 -1.265625 C 8.582031 -0.953125 8.289062 -0.679688 7.96875 -0.453125 C 7.65625 -0.234375 7.300781 -0.0625 6.90625 0.0625 C 6.507812 0.195312 6.035156 0.265625 5.484375 0.265625 C 4.890625 0.265625 4.335938 0.175781 3.828125 0 C 3.316406 -0.164062 2.875 -0.425781 2.5 -0.78125 C 2.132812 -1.132812 1.847656 -1.578125 1.640625 -2.109375 C 1.429688 -2.640625 1.328125 -3.269531 1.328125 -4 C 1.328125 -5.425781 1.832031 -6.484375 2.84375 -7.171875 C 3.851562 -7.859375 5.378906 -8.234375 7.421875 -8.296875 L 9.640625 -8.375 L 9.640625 -9.96875 C 9.640625 -10.445312 9.613281 -10.890625 9.5625 -11.296875 C 9.507812 -11.703125 9.394531 -12.050781 9.21875 -12.34375 C 9.050781 -12.632812 8.800781 -12.859375 8.46875 -13.015625 C 8.144531 -13.179688 7.710938 -13.265625 7.171875 -13.265625 Z M 7.171875 -13.265625 "/></g></g></g><g fill="#ffffff" fill-opacity="1"><g transform="translate(447.078463, 147.798974)"><g><path d="M 7.578125 0.265625 C 6.679688 0.265625 5.859375 0.128906 5.109375 -0.140625 C 4.367188 -0.421875 3.726562 -0.859375 3.1875 -1.453125 C 2.644531 -2.046875 2.222656 -2.800781 1.921875 -3.71875 C 1.617188 -4.644531 1.46875 -5.769531 1.46875 -7.09375 C 1.46875 -8.519531 1.617188 -9.710938 1.921875 -10.671875 C 2.222656 -11.628906 2.640625 -12.398438 3.171875 -12.984375 C 3.710938 -13.566406 4.34375 -13.976562 5.0625 -14.21875 C 5.789062 -14.46875 6.578125 -14.59375 7.421875 -14.59375 C 7.984375 -14.59375 8.539062 -14.535156 9.09375 -14.421875 C 9.644531 -14.316406 10.140625 -14.148438 10.578125 -13.921875 C 11.023438 -13.703125 11.390625 -13.421875 11.671875 -13.078125 C 11.953125 -12.734375 12.09375 -12.328125 12.09375 -11.859375 C 12.09375 -11.242188 11.890625 -10.8125 11.484375 -10.5625 C 11.085938 -10.3125 10.492188 -10.1875 9.703125 -10.1875 C 9.703125 -10.601562 9.664062 -11 9.59375 -11.375 C 9.519531 -11.75 9.398438 -12.078125 9.234375 -12.359375 C 9.066406 -12.640625 8.835938 -12.859375 8.546875 -13.015625 C 8.253906 -13.179688 7.878906 -13.265625 7.421875 -13.265625 C 6.910156 -13.265625 6.445312 -13.164062 6.03125 -12.96875 C 5.625 -12.78125 5.269531 -12.453125 4.96875 -11.984375 C 4.675781 -11.515625 4.453125 -10.882812 4.296875 -10.09375 C 4.140625 -9.300781 4.0625 -8.304688 4.0625 -7.109375 C 4.0625 -5.210938 4.375 -3.796875 5 -2.859375 C 5.632812 -1.929688 6.671875 -1.46875 8.109375 -1.46875 C 8.929688 -1.46875 9.648438 -1.640625 10.265625 -1.984375 C 10.890625 -2.335938 11.351562 -2.789062 11.65625 -3.34375 C 11.789062 -3.238281 11.898438 -3.097656 11.984375 -2.921875 C 12.066406 -2.742188 12.109375 -2.535156 12.109375 -2.296875 C 12.109375 -1.992188 12.015625 -1.6875 11.828125 -1.375 C 11.640625 -1.070312 11.351562 -0.800781 10.96875 -0.5625 C 10.59375 -0.320312 10.117188 -0.125 9.546875 0.03125 C 8.984375 0.1875 8.328125 0.265625 7.578125 0.265625 Z M 7.578125 0.265625 "/></g></g></g><g fill="#ffffff" fill-opacity="1"><g transform="translate(460.231914, 147.798974)"><g><path d="M 9.0625 -8.609375 L 12.625 -3.3125 C 13.082031 -2.601562 13.539062 -2.0625 14 -1.6875 C 14.457031 -1.3125 14.988281 -1.125 15.59375 -1.125 L 15.671875 -1.125 L 15.671875 0 L 15.28125 0 C 14.507812 0 13.875 -0.0195312 13.375 -0.0625 C 12.875 -0.113281 12.441406 -0.226562 12.078125 -0.40625 C 11.710938 -0.582031 11.375 -0.84375 11.0625 -1.1875 C 10.757812 -1.53125 10.421875 -2 10.046875 -2.59375 L 7.375 -6.78125 L 5.40625 -5.328125 L 5.40625 -2.90625 C 5.40625 -2.519531 5.460938 -2.207031 5.578125 -1.96875 C 5.691406 -1.726562 5.847656 -1.546875 6.046875 -1.421875 C 6.253906 -1.296875 6.488281 -1.210938 6.75 -1.171875 C 7.019531 -1.140625 7.300781 -1.125 7.59375 -1.125 L 7.671875 -1.125 L 7.671875 0 L 0.484375 0 L 0.484375 -1.125 L 0.6875 -1.125 C 1 -1.125 1.285156 -1.144531 1.546875 -1.1875 C 1.804688 -1.226562 2.035156 -1.316406 2.234375 -1.453125 C 2.429688 -1.585938 2.585938 -1.78125 2.703125 -2.03125 C 2.828125 -2.289062 2.890625 -2.628906 2.890625 -3.046875 L 2.890625 -17.375 C 2.890625 -17.769531 2.828125 -18.085938 2.703125 -18.328125 C 2.585938 -18.566406 2.429688 -18.75 2.234375 -18.875 C 2.035156 -19.007812 1.800781 -19.09375 1.53125 -19.125 C 1.269531 -19.164062 0.988281 -19.1875 0.6875 -19.1875 L 0.484375 -19.1875 L 0.484375 -20.3125 L 5.40625 -20.3125 L 5.40625 -10 C 5.40625 -9.757812 5.398438 -9.445312 5.390625 -9.0625 C 5.378906 -8.6875 5.367188 -8.316406 5.359375 -7.953125 C 5.335938 -7.535156 5.316406 -7.09375 5.296875 -6.625 L 8.640625 -10.28125 C 8.929688 -10.601562 9.171875 -10.882812 9.359375 -11.125 C 9.546875 -11.375 9.691406 -11.585938 9.796875 -11.765625 C 9.910156 -11.953125 9.988281 -12.117188 10.03125 -12.265625 C 10.082031 -12.410156 10.109375 -12.546875 10.109375 -12.671875 C 10.109375 -12.898438 10 -13.046875 9.78125 -13.109375 C 9.570312 -13.171875 9.242188 -13.203125 8.796875 -13.203125 L 8.796875 -14.328125 L 14.703125 -14.328125 L 14.703125 -13.203125 C 14.078125 -13.203125 13.46875 -12.984375 12.875 -12.546875 C 12.28125 -12.117188 11.632812 -11.507812 10.9375 -10.71875 Z M 9.0625 -8.609375 "/></g></g></g><g fill="#ffffff" fill-opacity="1"><g transform="translate(475.864685, 147.798974)"><g><path d="M 7.34375 -13.15625 C 6.351562 -13.15625 5.585938 -12.753906 5.046875 -11.953125 C 4.515625 -11.148438 4.203125 -9.972656 4.109375 -8.421875 L 10.265625 -8.421875 C 10.265625 -9.128906 10.210938 -9.769531 10.109375 -10.34375 C 10.003906 -10.925781 9.835938 -11.425781 9.609375 -11.84375 C 9.378906 -12.269531 9.078125 -12.59375 8.703125 -12.8125 C 8.335938 -13.039062 7.882812 -13.15625 7.34375 -13.15625 Z M 7.671875 0.265625 C 6.710938 0.265625 5.847656 0.101562 5.078125 -0.21875 C 4.304688 -0.550781 3.65625 -1.03125 3.125 -1.65625 C 2.59375 -2.28125 2.179688 -3.046875 1.890625 -3.953125 C 1.609375 -4.867188 1.46875 -5.90625 1.46875 -7.0625 C 1.46875 -9.5625 1.984375 -11.441406 3.015625 -12.703125 C 4.046875 -13.960938 5.507812 -14.59375 7.40625 -14.59375 C 8.257812 -14.59375 9.03125 -14.457031 9.71875 -14.1875 C 10.40625 -13.914062 10.988281 -13.507812 11.46875 -12.96875 C 11.945312 -12.4375 12.316406 -11.773438 12.578125 -10.984375 C 12.835938 -10.191406 12.96875 -9.265625 12.96875 -8.203125 L 12.96875 -6.984375 L 4.0625 -6.984375 C 4.070312 -6.003906 4.164062 -5.164062 4.34375 -4.46875 C 4.53125 -3.769531 4.789062 -3.191406 5.125 -2.734375 C 5.457031 -2.285156 5.867188 -1.953125 6.359375 -1.734375 C 6.847656 -1.523438 7.410156 -1.421875 8.046875 -1.421875 C 8.503906 -1.421875 8.929688 -1.472656 9.328125 -1.578125 C 9.722656 -1.679688 10.082031 -1.820312 10.40625 -2 C 10.726562 -2.175781 11.007812 -2.375 11.25 -2.59375 C 11.5 -2.8125 11.703125 -3.046875 11.859375 -3.296875 C 11.984375 -3.242188 12.097656 -3.132812 12.203125 -2.96875 C 12.316406 -2.800781 12.375 -2.601562 12.375 -2.375 C 12.375 -2.101562 12.273438 -1.8125 12.078125 -1.5 C 11.890625 -1.195312 11.597656 -0.914062 11.203125 -0.65625 C 10.816406 -0.394531 10.328125 -0.175781 9.734375 0 C 9.148438 0.175781 8.460938 0.265625 7.671875 0.265625 Z M 7.671875 0.265625 "/></g></g></g><g fill="#ffffff" fill-opacity="1"><g transform="translate(490.166451, 147.798974)"><g><path d="M 7.9375 -1.125 L 7.9375 0 L 0.75 0 L 0.75 -1.125 L 0.96875 -1.125 C 1.269531 -1.125 1.550781 -1.144531 1.8125 -1.1875 C 2.082031 -1.226562 2.316406 -1.316406 2.515625 -1.453125 C 2.710938 -1.585938 2.867188 -1.78125 2.984375 -2.03125 C 3.097656 -2.289062 3.15625 -2.628906 3.15625 -3.046875 L 3.15625 -11.390625 C 3.15625 -11.773438 3.097656 -12.085938 2.984375 -12.328125 C 2.867188 -12.566406 2.707031 -12.75 2.5 -12.875 C 2.300781 -13.007812 2.066406 -13.097656 1.796875 -13.140625 C 1.535156 -13.179688 1.257812 -13.203125 0.96875 -13.203125 L 0.890625 -13.203125 L 0.890625 -14.328125 L 5.203125 -14.328125 L 5.5625 -12.171875 L 5.6875 -12.171875 C 5.96875 -12.660156 6.257812 -13.0625 6.5625 -13.375 C 6.875 -13.695312 7.203125 -13.945312 7.546875 -14.125 C 7.890625 -14.3125 8.253906 -14.4375 8.640625 -14.5 C 9.035156 -14.5625 9.445312 -14.59375 9.875 -14.59375 C 10.570312 -14.59375 11.195312 -14.488281 11.75 -14.28125 C 12.300781 -14.082031 12.769531 -13.769531 13.15625 -13.34375 C 13.550781 -12.925781 13.847656 -12.382812 14.046875 -11.71875 C 14.253906 -11.0625 14.359375 -10.273438 14.359375 -9.359375 L 14.359375 -3.046875 C 14.359375 -2.628906 14.40625 -2.289062 14.5 -2.03125 C 14.601562 -1.78125 14.742188 -1.585938 14.921875 -1.453125 C 15.109375 -1.316406 15.328125 -1.226562 15.578125 -1.1875 C 15.835938 -1.144531 16.113281 -1.125 16.40625 -1.125 L 16.5 -1.125 L 16.5 0 L 11.84375 0 L 11.84375 -9.234375 C 11.84375 -9.816406 11.789062 -10.332031 11.6875 -10.78125 C 11.582031 -11.238281 11.410156 -11.625 11.171875 -11.9375 C 10.941406 -12.25 10.640625 -12.484375 10.265625 -12.640625 C 9.898438 -12.804688 9.445312 -12.890625 8.90625 -12.890625 C 8.289062 -12.890625 7.773438 -12.769531 7.359375 -12.53125 C 6.953125 -12.289062 6.617188 -11.972656 6.359375 -11.578125 C 6.109375 -11.179688 5.929688 -10.71875 5.828125 -10.1875 C 5.722656 -9.664062 5.671875 -9.117188 5.671875 -8.546875 L 5.671875 -2.90625 C 5.671875 -2.519531 5.726562 -2.207031 5.84375 -1.96875 C 5.957031 -1.726562 6.113281 -1.546875 6.3125 -1.421875 C 6.519531 -1.296875 6.753906 -1.210938 7.015625 -1.171875 C 7.285156 -1.140625 7.566406 -1.125 7.859375 -1.125 Z M 7.9375 -1.125 "/></g></g></g><g fill="#ffffff" fill-opacity="1"><g transform="translate(507.404262, 147.798974)"><g><path d="M 13.53125 -2.9375 C 13.53125 -2.539062 13.585938 -2.222656 13.703125 -1.984375 C 13.816406 -1.742188 13.972656 -1.554688 14.171875 -1.421875 C 14.378906 -1.296875 14.613281 -1.210938 14.875 -1.171875 C 15.132812 -1.140625 15.414062 -1.125 15.71875 -1.125 L 15.9375 -1.125 L 15.9375 0 L 11.40625 0 L 11.125 -2.40625 L 11.015625 -2.40625 C 10.816406 -1.988281 10.585938 -1.617188 10.328125 -1.296875 C 10.078125 -0.972656 9.785156 -0.695312 9.453125 -0.46875 C 9.117188 -0.238281 8.742188 -0.0625 8.328125 0.0625 C 7.910156 0.195312 7.441406 0.265625 6.921875 0.265625 C 6.035156 0.265625 5.253906 0.117188 4.578125 -0.171875 C 3.898438 -0.460938 3.332031 -0.910156 2.875 -1.515625 C 2.414062 -2.117188 2.066406 -2.882812 1.828125 -3.8125 C 1.585938 -4.75 1.46875 -5.859375 1.46875 -7.140625 C 1.46875 -8.429688 1.585938 -9.546875 1.828125 -10.484375 C 2.066406 -11.421875 2.414062 -12.191406 2.875 -12.796875 C 3.332031 -13.410156 3.898438 -13.863281 4.578125 -14.15625 C 5.253906 -14.445312 6.035156 -14.59375 6.921875 -14.59375 C 7.429688 -14.59375 7.894531 -14.535156 8.3125 -14.421875 C 8.726562 -14.304688 9.101562 -14.144531 9.4375 -13.9375 C 9.78125 -13.726562 10.082031 -13.476562 10.34375 -13.1875 C 10.601562 -12.90625 10.828125 -12.59375 11.015625 -12.25 L 11.171875 -12.25 C 11.148438 -12.675781 11.125 -13.082031 11.09375 -13.46875 C 11.070312 -13.800781 11.050781 -14.128906 11.03125 -14.453125 C 11.019531 -14.785156 11.015625 -15.03125 11.015625 -15.1875 L 11.015625 -17.375 C 11.015625 -17.769531 10.957031 -18.085938 10.84375 -18.328125 C 10.726562 -18.566406 10.566406 -18.75 10.359375 -18.875 C 10.160156 -19.007812 9.925781 -19.09375 9.65625 -19.125 C 9.394531 -19.164062 9.117188 -19.1875 8.828125 -19.1875 L 8.609375 -19.1875 L 8.609375 -20.3125 L 13.53125 -20.3125 Z M 7.375 -1.453125 C 8.070312 -1.453125 8.648438 -1.566406 9.109375 -1.796875 C 9.578125 -2.023438 9.953125 -2.375 10.234375 -2.84375 C 10.523438 -3.3125 10.726562 -3.898438 10.84375 -4.609375 C 10.957031 -5.328125 11.015625 -6.171875 11.015625 -7.140625 C 11.015625 -8.066406 10.957031 -8.882812 10.84375 -9.59375 C 10.726562 -10.3125 10.523438 -10.910156 10.234375 -11.390625 C 9.953125 -11.878906 9.578125 -12.25 9.109375 -12.5 C 8.640625 -12.757812 8.050781 -12.890625 7.34375 -12.890625 C 6.757812 -12.890625 6.257812 -12.757812 5.84375 -12.5 C 5.425781 -12.25 5.082031 -11.878906 4.8125 -11.390625 C 4.550781 -10.910156 4.359375 -10.3125 4.234375 -9.59375 C 4.117188 -8.875 4.0625 -8.046875 4.0625 -7.109375 C 4.0625 -5.210938 4.316406 -3.796875 4.828125 -2.859375 C 5.335938 -1.921875 6.1875 -1.453125 7.375 -1.453125 Z M 7.375 -1.453125 "/></g></g></g><g fill="#ffffff" fill-opacity="1"><g transform="translate(523.806933, 147.798974)"><g><path d="M 17.90625 -9.5625 C 17.90625 -8.101562 17.722656 -6.785156 17.359375 -5.609375 C 16.992188 -4.429688 16.445312 -3.425781 15.71875 -2.59375 C 15 -1.757812 14.097656 -1.117188 13.015625 -0.671875 C 11.929688 -0.222656 10.660156 0 9.203125 0 L 1.015625 0 L 1.015625 -1.125 L 1.359375 -1.125 C 1.660156 -1.125 1.941406 -1.144531 2.203125 -1.1875 C 2.472656 -1.226562 2.707031 -1.316406 2.90625 -1.453125 C 3.113281 -1.585938 3.269531 -1.78125 3.375 -2.03125 C 3.488281 -2.289062 3.546875 -2.628906 3.546875 -3.046875 L 3.546875 -16.140625 C 3.546875 -16.535156 3.488281 -16.851562 3.375 -17.09375 C 3.257812 -17.332031 3.097656 -17.515625 2.890625 -17.640625 C 2.691406 -17.773438 2.457031 -17.863281 2.1875 -17.90625 C 1.925781 -17.945312 1.648438 -17.96875 1.359375 -17.96875 L 1.015625 -17.96875 L 1.015625 -19.078125 L 9.203125 -19.078125 C 10.578125 -19.078125 11.800781 -18.863281 12.875 -18.4375 C 13.957031 -18.019531 14.867188 -17.40625 15.609375 -16.59375 C 16.359375 -15.789062 16.925781 -14.796875 17.3125 -13.609375 C 17.707031 -12.429688 17.90625 -11.082031 17.90625 -9.5625 Z M 8.578125 -1.359375 C 9.640625 -1.359375 10.566406 -1.535156 11.359375 -1.890625 C 12.160156 -2.253906 12.828125 -2.785156 13.359375 -3.484375 C 13.890625 -4.179688 14.285156 -5.035156 14.546875 -6.046875 C 14.816406 -7.066406 14.953125 -8.238281 14.953125 -9.5625 C 14.953125 -12.21875 14.421875 -14.242188 13.359375 -15.640625 C 12.304688 -17.046875 10.722656 -17.75 8.609375 -17.75 L 6.25 -17.75 L 6.25 -1.359375 Z M 8.578125 -1.359375 "/></g></g></g><g fill="#ffffff" fill-opacity="1"><g transform="translate(543.236986, 147.798974)"><g><path d="M 7.34375 -13.15625 C 6.351562 -13.15625 5.585938 -12.753906 5.046875 -11.953125 C 4.515625 -11.148438 4.203125 -9.972656 4.109375 -8.421875 L 10.265625 -8.421875 C 10.265625 -9.128906 10.210938 -9.769531 10.109375 -10.34375 C 10.003906 -10.925781 9.835938 -11.425781 9.609375 -11.84375 C 9.378906 -12.269531 9.078125 -12.59375 8.703125 -12.8125 C 8.335938 -13.039062 7.882812 -13.15625 7.34375 -13.15625 Z M 7.671875 0.265625 C 6.710938 0.265625 5.847656 0.101562 5.078125 -0.21875 C 4.304688 -0.550781 3.65625 -1.03125 3.125 -1.65625 C 2.59375 -2.28125 2.179688 -3.046875 1.890625 -3.953125 C 1.609375 -4.867188 1.46875 -5.90625 1.46875 -7.0625 C 1.46875 -9.5625 1.984375 -11.441406 3.015625 -12.703125 C 4.046875 -13.960938 5.507812 -14.59375 7.40625 -14.59375 C 8.257812 -14.59375 9.03125 -14.457031 9.71875 -14.1875 C 10.40625 -13.914062 10.988281 -13.507812 11.46875 -12.96875 C 11.945312 -12.4375 12.316406 -11.773438 12.578125 -10.984375 C 12.835938 -10.191406 12.96875 -9.265625 12.96875 -8.203125 L 12.96875 -6.984375 L 4.0625 -6.984375 C 4.070312 -6.003906 4.164062 -5.164062 4.34375 -4.46875 C 4.53125 -3.769531 4.789062 -3.191406 5.125 -2.734375 C 5.457031 -2.285156 5.867188 -1.953125 6.359375 -1.734375 C 6.847656 -1.523438 7.410156 -1.421875 8.046875 -1.421875 C 8.503906 -1.421875 8.929688 -1.472656 9.328125 -1.578125 C 9.722656 -1.679688 10.082031 -1.820312 10.40625 -2 C 10.726562 -2.175781 11.007812 -2.375 11.25 -2.59375 C 11.5 -2.8125 11.703125 -3.046875 11.859375 -3.296875 C 11.984375 -3.242188 12.097656 -3.132812 12.203125 -2.96875 C 12.316406 -2.800781 12.375 -2.601562 12.375 -2.375 C 12.375 -2.101562 12.273438 -1.8125 12.078125 -1.5 C 11.890625 -1.195312 11.597656 -0.914062 11.203125 -0.65625 C 10.816406 -0.394531 10.328125 -0.175781 9.734375 0 C 9.148438 0.175781 8.460938 0.265625 7.671875 0.265625 Z M 7.671875 0.265625 "/></g></g></g><g fill="#ffffff" fill-opacity="1"><g transform="translate(557.538753, 147.798974)"><g><path d="M 0.109375 -13.203125 L 0.109375 -14.328125 L 6.78125 -14.328125 L 6.78125 -13.203125 L 6.453125 -13.203125 C 5.910156 -13.203125 5.503906 -13.097656 5.234375 -12.890625 C 4.972656 -12.679688 4.84375 -12.359375 4.84375 -11.921875 C 4.84375 -11.773438 4.859375 -11.625 4.890625 -11.46875 C 4.929688 -11.3125 4.984375 -11.132812 5.046875 -10.9375 L 6.859375 -5.890625 C 6.972656 -5.578125 7.09375 -5.226562 7.21875 -4.84375 C 7.34375 -4.46875 7.457031 -4.097656 7.5625 -3.734375 C 7.675781 -3.367188 7.773438 -3.019531 7.859375 -2.6875 C 7.941406 -2.363281 8.003906 -2.085938 8.046875 -1.859375 L 8.125 -1.859375 C 8.175781 -2.054688 8.25 -2.296875 8.34375 -2.578125 C 8.445312 -2.859375 8.5625 -3.164062 8.6875 -3.5 C 8.8125 -3.832031 8.941406 -4.171875 9.078125 -4.515625 C 9.210938 -4.867188 9.34375 -5.207031 9.46875 -5.53125 L 11.390625 -10.75 C 11.472656 -10.957031 11.53125 -11.160156 11.5625 -11.359375 C 11.601562 -11.566406 11.625 -11.742188 11.625 -11.890625 C 11.625 -12.347656 11.476562 -12.679688 11.1875 -12.890625 C 10.894531 -13.097656 10.457031 -13.203125 9.875 -13.203125 L 9.671875 -13.203125 L 9.671875 -14.328125 L 15.40625 -14.328125 L 15.40625 -13.203125 L 15.078125 -13.203125 C 14.816406 -13.203125 14.59375 -13.175781 14.40625 -13.125 C 14.226562 -13.070312 14.0625 -12.96875 13.90625 -12.8125 C 13.757812 -12.65625 13.617188 -12.441406 13.484375 -12.171875 C 13.347656 -11.898438 13.203125 -11.550781 13.046875 -11.125 L 8.828125 0 L 6.390625 0 L 2.09375 -11.78125 C 1.988281 -12.0625 1.878906 -12.289062 1.765625 -12.46875 C 1.648438 -12.65625 1.519531 -12.800781 1.375 -12.90625 C 1.226562 -13.019531 1.054688 -13.097656 0.859375 -13.140625 C 0.671875 -13.179688 0.445312 -13.203125 0.1875 -13.203125 Z M 0.109375 -13.203125 "/></g></g></g><g fill="#ffffff" fill-opacity="1"><g transform="translate(573.014935, 147.798974)"><g><path d="M 7.34375 -13.15625 C 6.351562 -13.15625 5.585938 -12.753906 5.046875 -11.953125 C 4.515625 -11.148438 4.203125 -9.972656 4.109375 -8.421875 L 10.265625 -8.421875 C 10.265625 -9.128906 10.210938 -9.769531 10.109375 -10.34375 C 10.003906 -10.925781 9.835938 -11.425781 9.609375 -11.84375 C 9.378906 -12.269531 9.078125 -12.59375 8.703125 -12.8125 C 8.335938 -13.039062 7.882812 -13.15625 7.34375 -13.15625 Z M 7.671875 0.265625 C 6.710938 0.265625 5.847656 0.101562 5.078125 -0.21875 C 4.304688 -0.550781 3.65625 -1.03125 3.125 -1.65625 C 2.59375 -2.28125 2.179688 -3.046875 1.890625 -3.953125 C 1.609375 -4.867188 1.46875 -5.90625 1.46875 -7.0625 C 1.46875 -9.5625 1.984375 -11.441406 3.015625 -12.703125 C 4.046875 -13.960938 5.507812 -14.59375 7.40625 -14.59375 C 8.257812 -14.59375 9.03125 -14.457031 9.71875 -14.1875 C 10.40625 -13.914062 10.988281 -13.507812 11.46875 -12.96875 C 11.945312 -12.4375 12.316406 -11.773438 12.578125 -10.984375 C 12.835938 -10.191406 12.96875 -9.265625 12.96875 -8.203125 L 12.96875 -6.984375 L 4.0625 -6.984375 C 4.070312 -6.003906 4.164062 -5.164062 4.34375 -4.46875 C 4.53125 -3.769531 4.789062 -3.191406 5.125 -2.734375 C 5.457031 -2.285156 5.867188 -1.953125 6.359375 -1.734375 C 6.847656 -1.523438 7.410156 -1.421875 8.046875 -1.421875 C 8.503906 -1.421875 8.929688 -1.472656 9.328125 -1.578125 C 9.722656 -1.679688 10.082031 -1.820312 10.40625 -2 C 10.726562 -2.175781 11.007812 -2.375 11.25 -2.59375 C 11.5 -2.8125 11.703125 -3.046875 11.859375 -3.296875 C 11.984375 -3.242188 12.097656 -3.132812 12.203125 -2.96875 C 12.316406 -2.800781 12.375 -2.601562 12.375 -2.375 C 12.375 -2.101562 12.273438 -1.8125 12.078125 -1.5 C 11.890625 -1.195312 11.597656 -0.914062 11.203125 -0.65625 C 10.816406 -0.394531 10.328125 -0.175781 9.734375 0 C 9.148438 0.175781 8.460938 0.265625 7.671875 0.265625 Z M 7.671875 0.265625 "/></g></g></g><g fill="#ffffff" fill-opacity="1"><g transform="translate(587.316702, 147.798974)"><g><path d="M 0.6875 -1.125 C 1 -1.125 1.285156 -1.144531 1.546875 -1.1875 C 1.804688 -1.226562 2.035156 -1.316406 2.234375 -1.453125 C 2.429688 -1.585938 2.585938 -1.78125 2.703125 -2.03125 C 2.828125 -2.289062 2.890625 -2.628906 2.890625 -3.046875 L 2.890625 -17.375 C 2.890625 -17.769531 2.828125 -18.085938 2.703125 -18.328125 C 2.585938 -18.566406 2.429688 -18.75 2.234375 -18.875 C 2.035156 -19.007812 1.800781 -19.09375 1.53125 -19.125 C 1.269531 -19.164062 0.988281 -19.1875 0.6875 -19.1875 L 0.359375 -19.1875 L 0.359375 -20.3125 L 5.40625 -20.3125 L 5.40625 -3.046875 C 5.40625 -2.628906 5.460938 -2.289062 5.578125 -2.03125 C 5.691406 -1.78125 5.847656 -1.585938 6.046875 -1.453125 C 6.242188 -1.316406 6.472656 -1.226562 6.734375 -1.1875 C 7.003906 -1.144531 7.289062 -1.125 7.59375 -1.125 L 7.9375 -1.125 L 7.9375 0 L 0.359375 0 L 0.359375 -1.125 Z M 0.6875 -1.125 "/></g></g></g><g fill="#ffffff" fill-opacity="1"><g transform="translate(595.602859, 147.798974)"><g><path d="M 13.953125 -7.1875 C 13.953125 -4.675781 13.414062 -2.804688 12.34375 -1.578125 C 11.28125 -0.347656 9.722656 0.265625 7.671875 0.265625 C 6.710938 0.265625 5.847656 0.113281 5.078125 -0.1875 C 4.304688 -0.5 3.65625 -0.960938 3.125 -1.578125 C 2.59375 -2.191406 2.179688 -2.96875 1.890625 -3.90625 C 1.609375 -4.84375 1.46875 -5.9375 1.46875 -7.1875 C 1.46875 -9.6875 1.992188 -11.546875 3.046875 -12.765625 C 4.109375 -13.984375 5.675781 -14.59375 7.75 -14.59375 C 8.71875 -14.59375 9.582031 -14.441406 10.34375 -14.140625 C 11.113281 -13.835938 11.765625 -13.378906 12.296875 -12.765625 C 12.835938 -12.160156 13.25 -11.394531 13.53125 -10.46875 C 13.8125 -9.539062 13.953125 -8.445312 13.953125 -7.1875 Z M 4.0625 -7.1875 C 4.0625 -6.195312 4.125 -5.320312 4.25 -4.5625 C 4.382812 -3.8125 4.597656 -3.179688 4.890625 -2.671875 C 5.179688 -2.160156 5.554688 -1.773438 6.015625 -1.515625 C 6.484375 -1.253906 7.054688 -1.125 7.734375 -1.125 C 8.398438 -1.125 8.960938 -1.253906 9.421875 -1.515625 C 9.878906 -1.773438 10.253906 -2.160156 10.546875 -2.671875 C 10.835938 -3.179688 11.046875 -3.8125 11.171875 -4.5625 C 11.296875 -5.320312 11.359375 -6.195312 11.359375 -7.1875 C 11.359375 -8.1875 11.289062 -9.054688 11.15625 -9.796875 C 11.03125 -10.546875 10.820312 -11.171875 10.53125 -11.671875 C 10.25 -12.171875 9.875 -12.546875 9.40625 -12.796875 C 8.9375 -13.054688 8.367188 -13.1875 7.703125 -13.1875 C 7.035156 -13.1875 6.46875 -13.054688 6 -12.796875 C 5.539062 -12.546875 5.164062 -12.171875 4.875 -11.671875 C 4.59375 -11.171875 4.382812 -10.546875 4.25 -9.796875 C 4.125 -9.054688 4.0625 -8.1875 4.0625 -7.1875 Z M 4.0625 -7.1875 "/></g></g></g><g fill="#ffffff" fill-opacity="1"><g transform="translate(611.026856, 147.798974)"><g><path d="M 9.03125 -12.890625 C 8.332031 -12.890625 7.75 -12.769531 7.28125 -12.53125 C 6.820312 -12.300781 6.453125 -11.953125 6.171875 -11.484375 C 5.890625 -11.015625 5.691406 -10.421875 5.578125 -9.703125 C 5.460938 -8.992188 5.40625 -8.15625 5.40625 -7.1875 C 5.40625 -6.257812 5.460938 -5.4375 5.578125 -4.71875 C 5.691406 -4.007812 5.890625 -3.410156 6.171875 -2.921875 C 6.460938 -2.429688 6.835938 -2.0625 7.296875 -1.8125 C 7.765625 -1.570312 8.351562 -1.453125 9.0625 -1.453125 C 9.65625 -1.453125 10.15625 -1.570312 10.5625 -1.8125 C 10.976562 -2.0625 11.316406 -2.429688 11.578125 -2.921875 C 11.847656 -3.410156 12.039062 -4.015625 12.15625 -4.734375 C 12.28125 -5.453125 12.34375 -6.28125 12.34375 -7.21875 C 12.34375 -8.164062 12.28125 -8.992188 12.15625 -9.703125 C 12.039062 -10.410156 11.847656 -11 11.578125 -11.46875 C 11.316406 -11.9375 10.972656 -12.289062 10.546875 -12.53125 C 10.128906 -12.769531 9.625 -12.890625 9.03125 -12.890625 Z M 14.953125 -7.1875 C 14.953125 -5.90625 14.832031 -4.789062 14.59375 -3.84375 C 14.351562 -2.90625 14 -2.128906 13.53125 -1.515625 C 13.070312 -0.910156 12.503906 -0.460938 11.828125 -0.171875 C 11.148438 0.117188 10.367188 0.265625 9.484375 0.265625 C 8.972656 0.265625 8.507812 0.207031 8.09375 0.09375 C 7.675781 -0.0195312 7.300781 -0.179688 6.96875 -0.390625 C 6.632812 -0.597656 6.335938 -0.84375 6.078125 -1.125 C 5.816406 -1.414062 5.59375 -1.738281 5.40625 -2.09375 L 5.296875 -2.09375 C 5.316406 -1.625 5.335938 -1.191406 5.359375 -0.796875 C 5.359375 -0.628906 5.359375 -0.457031 5.359375 -0.28125 C 5.367188 -0.101562 5.375 0.0625 5.375 0.21875 C 5.382812 0.375 5.390625 0.515625 5.390625 0.640625 C 5.398438 0.765625 5.40625 0.863281 5.40625 0.9375 L 5.40625 3.5 C 5.40625 3.882812 5.460938 4.195312 5.578125 4.4375 C 5.691406 4.675781 5.847656 4.859375 6.046875 4.984375 C 6.253906 5.117188 6.488281 5.203125 6.75 5.234375 C 7.019531 5.273438 7.300781 5.296875 7.59375 5.296875 L 7.671875 5.296875 L 7.671875 6.421875 L 0.484375 6.421875 L 0.484375 5.296875 L 0.6875 5.296875 C 1 5.296875 1.285156 5.273438 1.546875 5.234375 C 1.804688 5.191406 2.035156 5.101562 2.234375 4.96875 C 2.429688 4.832031 2.585938 4.632812 2.703125 4.375 C 2.828125 4.125 2.890625 3.789062 2.890625 3.375 L 2.890625 -11.390625 C 2.890625 -11.773438 2.828125 -12.085938 2.703125 -12.328125 C 2.585938 -12.566406 2.429688 -12.75 2.234375 -12.875 C 2.035156 -13.007812 1.800781 -13.097656 1.53125 -13.140625 C 1.269531 -13.179688 0.988281 -13.203125 0.6875 -13.203125 L 0.359375 -13.203125 L 0.359375 -14.328125 L 5.03125 -14.328125 L 5.296875 -11.921875 L 5.40625 -11.921875 C 5.601562 -12.328125 5.828125 -12.695312 6.078125 -13.03125 C 6.335938 -13.363281 6.628906 -13.644531 6.953125 -13.875 C 7.285156 -14.101562 7.660156 -14.28125 8.078125 -14.40625 C 8.492188 -14.53125 8.960938 -14.59375 9.484375 -14.59375 C 10.367188 -14.59375 11.148438 -14.445312 11.828125 -14.15625 C 12.503906 -13.863281 13.070312 -13.414062 13.53125 -12.8125 C 14 -12.207031 14.351562 -11.4375 14.59375 -10.5 C 14.832031 -9.570312 14.953125 -8.46875 14.953125 -7.1875 Z M 14.953125 -7.1875 "/></g></g></g><g fill="#ffffff" fill-opacity="1"><g transform="translate(627.429527, 147.798974)"><g><path d="M 7.34375 -13.15625 C 6.351562 -13.15625 5.585938 -12.753906 5.046875 -11.953125 C 4.515625 -11.148438 4.203125 -9.972656 4.109375 -8.421875 L 10.265625 -8.421875 C 10.265625 -9.128906 10.210938 -9.769531 10.109375 -10.34375 C 10.003906 -10.925781 9.835938 -11.425781 9.609375 -11.84375 C 9.378906 -12.269531 9.078125 -12.59375 8.703125 -12.8125 C 8.335938 -13.039062 7.882812 -13.15625 7.34375 -13.15625 Z M 7.671875 0.265625 C 6.710938 0.265625 5.847656 0.101562 5.078125 -0.21875 C 4.304688 -0.550781 3.65625 -1.03125 3.125 -1.65625 C 2.59375 -2.28125 2.179688 -3.046875 1.890625 -3.953125 C 1.609375 -4.867188 1.46875 -5.90625 1.46875 -7.0625 C 1.46875 -9.5625 1.984375 -11.441406 3.015625 -12.703125 C 4.046875 -13.960938 5.507812 -14.59375 7.40625 -14.59375 C 8.257812 -14.59375 9.03125 -14.457031 9.71875 -14.1875 C 10.40625 -13.914062 10.988281 -13.507812 11.46875 -12.96875 C 11.945312 -12.4375 12.316406 -11.773438 12.578125 -10.984375 C 12.835938 -10.191406 12.96875 -9.265625 12.96875 -8.203125 L 12.96875 -6.984375 L 4.0625 -6.984375 C 4.070312 -6.003906 4.164062 -5.164062 4.34375 -4.46875 C 4.53125 -3.769531 4.789062 -3.191406 5.125 -2.734375 C 5.457031 -2.285156 5.867188 -1.953125 6.359375 -1.734375 C 6.847656 -1.523438 7.410156 -1.421875 8.046875 -1.421875 C 8.503906 -1.421875 8.929688 -1.472656 9.328125 -1.578125 C 9.722656 -1.679688 10.082031 -1.820312 10.40625 -2 C 10.726562 -2.175781 11.007812 -2.375 11.25 -2.59375 C 11.5 -2.8125 11.703125 -3.046875 11.859375 -3.296875 C 11.984375 -3.242188 12.097656 -3.132812 12.203125 -2.96875 C 12.316406 -2.800781 12.375 -2.601562 12.375 -2.375 C 12.375 -2.101562 12.273438 -1.8125 12.078125 -1.5 C 11.890625 -1.195312 11.597656 -0.914062 11.203125 -0.65625 C 10.816406 -0.394531 10.328125 -0.175781 9.734375 0 C 9.148438 0.175781 8.460938 0.265625 7.671875 0.265625 Z M 7.671875 0.265625 "/></g></g></g><g fill="#ffffff" fill-opacity="1"><g transform="translate(641.731294, 147.798974)"><g><path d="M 8.609375 0 L 0.890625 0 L 0.890625 -1.125 L 0.96875 -1.125 C 1.269531 -1.125 1.550781 -1.144531 1.8125 -1.1875 C 2.082031 -1.226562 2.316406 -1.316406 2.515625 -1.453125 C 2.710938 -1.585938 2.867188 -1.78125 2.984375 -2.03125 C 3.097656 -2.289062 3.15625 -2.628906 3.15625 -3.046875 L 3.15625 -11.390625 C 3.15625 -11.773438 3.097656 -12.085938 2.984375 -12.328125 C 2.867188 -12.566406 2.707031 -12.75 2.5 -12.875 C 2.300781 -13.007812 2.066406 -13.097656 1.796875 -13.140625 C 1.535156 -13.179688 1.257812 -13.203125 0.96875 -13.203125 L 0.890625 -13.203125 L 0.890625 -14.328125 L 5 -14.328125 L 5.515625 -11.6875 L 5.640625 -11.6875 C 5.816406 -12.082031 5.992188 -12.457031 6.171875 -12.8125 C 6.359375 -13.164062 6.582031 -13.472656 6.84375 -13.734375 C 7.113281 -14.003906 7.441406 -14.210938 7.828125 -14.359375 C 8.222656 -14.515625 8.71875 -14.59375 9.3125 -14.59375 C 10.28125 -14.59375 11 -14.421875 11.46875 -14.078125 C 11.945312 -13.742188 12.1875 -13.269531 12.1875 -12.65625 C 12.1875 -12.375 12.140625 -12.113281 12.046875 -11.875 C 11.960938 -11.644531 11.816406 -11.441406 11.609375 -11.265625 C 11.410156 -11.097656 11.15625 -10.96875 10.84375 -10.875 C 10.53125 -10.789062 10.148438 -10.75 9.703125 -10.75 C 9.703125 -11.488281 9.597656 -12.019531 9.390625 -12.34375 C 9.179688 -12.664062 8.816406 -12.828125 8.296875 -12.828125 C 7.960938 -12.828125 7.664062 -12.734375 7.40625 -12.546875 C 7.144531 -12.359375 6.914062 -12.109375 6.71875 -11.796875 C 6.519531 -11.492188 6.351562 -11.140625 6.21875 -10.734375 C 6.082031 -10.335938 5.972656 -9.925781 5.890625 -9.5 C 5.804688 -9.082031 5.75 -8.664062 5.71875 -8.25 C 5.6875 -7.832031 5.671875 -7.453125 5.671875 -7.109375 L 5.671875 -2.90625 C 5.671875 -2.519531 5.726562 -2.207031 5.84375 -1.96875 C 5.957031 -1.726562 6.113281 -1.546875 6.3125 -1.421875 C 6.519531 -1.296875 6.753906 -1.210938 7.015625 -1.171875 C 7.285156 -1.140625 7.566406 -1.125 7.859375 -1.125 L 8.609375 -1.125 Z M 8.609375 0 "/></g></g></g><g clip-path="url(#e3157ac971)"><path fill="#ffffff" d="M 138.960938 54.09375 C 180.257812 54.09375 213.730469 88.414062 213.730469 130.757812 C 213.730469 164.621094 192.332031 193.347656 162.640625 203.496094 C 158.847656 204.25 157.503906 201.859375 157.503906 199.8125 C 157.503906 197.289062 157.59375 189.03125 157.59375 178.773438 C 157.59375 171.628906 155.199219 166.960938 152.515625 164.582031 C 169.167969 162.683594 186.664062 156.199219 186.664062 126.753906 C 186.664062 118.382812 183.761719 111.546875 178.960938 106.179688 C 179.742188 104.242188 182.304688 96.445312 178.230469 85.886719 C 178.230469 85.886719 171.964844 83.832031 157.691406 93.746094 C 151.714844 92.050781 145.316406 91.195312 138.960938 91.164062 C 132.605469 91.195312 126.210938 92.050781 120.246094 93.746094 C 105.957031 83.832031 99.675781 85.886719 99.675781 85.886719 C 95.613281 96.445312 98.179688 104.242188 98.949219 106.179688 C 94.171875 111.546875 91.25 118.382812 91.25 126.753906 C 91.25 156.125 108.707031 162.707031 125.3125 164.644531 C 123.175781 166.558594 121.238281 169.9375 120.566406 174.894531 C 116.304688 176.851562 105.476562 180.242188 98.808594 168.523438 C 98.808594 168.523438 94.851562 161.15625 87.34375 160.621094 C 87.34375 160.621094 80.054688 160.523438 86.835938 165.28125 C 86.835938 165.28125 91.734375 167.632812 95.136719 176.496094 C 95.136719 176.496094 99.527344 190.179688 120.328125 185.542969 C 120.363281 191.949219 120.433594 197.992188 120.433594 199.8125 C 120.433594 201.839844 119.054688 204.210938 115.324219 203.5 C 85.609375 193.371094 64.1875 164.628906 64.1875 130.757812 C 64.1875 88.414062 97.671875 54.09375 138.960938 54.09375 " fill-opacity="1" fill-rule="evenodd"/></g></svg>