<svg xmlns="http://www.w3.org/2000/svg" xmlns:xlink="http://www.w3.org/1999/xlink" width="639" zoomAndPan="magnify" viewBox="0 0 479.25 149.999998" height="200" preserveAspectRatio="xMidYMid meet" version="1.0"><defs><g/><clipPath id="fcd63261be"><path d="M 0 0.117188 L 478.5 0.117188 L 478.5 149.882812 L 0 149.882812 Z M 0 0.117188 " clip-rule="nonzero"/></clipPath><clipPath id="82d0359439"><path d="M 45 41 L 106 41 L 106 99.648438 L 45 99.648438 Z M 45 41 " clip-rule="nonzero"/></clipPath></defs><g clip-path="url(#fcd63261be)"><path fill="#ffffff" d="M 0 0.117188 L 478.5 0.117188 L 478.5 149.882812 L 0 149.882812 Z M 0 0.117188 " fill-opacity="1" fill-rule="nonzero"/><path fill="#000000" d="M 0 0.117188 L 478.5 0.117188 L 478.5 149.882812 L 0 149.882812 Z M 0 0.117188 " fill-opacity="1" fill-rule="nonzero"/></g><g clip-path="url(#82d0359439)"><path fill="#ffffff" d="M 72.242188 41.472656 C 58.730469 42.972656 47.71875 53.875 46.089844 67.363281 C 45.984375 68.210938 45.914062 69.0625 45.882812 69.914062 C 45.847656 70.769531 45.851562 71.621094 45.894531 72.476562 C 45.933594 73.328125 46.011719 74.175781 46.125 75.023438 C 46.238281 75.871094 46.386719 76.710938 46.574219 77.542969 C 46.757812 78.378906 46.980469 79.203125 47.234375 80.015625 C 47.492188 80.832031 47.78125 81.632812 48.109375 82.421875 C 48.433594 83.210938 48.789062 83.988281 49.183594 84.746094 C 49.574219 85.503906 49.996094 86.246094 50.453125 86.96875 C 50.90625 87.691406 51.390625 88.394531 51.90625 89.074219 C 52.421875 89.753906 52.964844 90.414062 53.535156 91.046875 C 54.109375 91.683594 54.707031 92.292969 55.328125 92.875 C 55.953125 93.457031 56.601562 94.011719 57.273438 94.542969 C 57.941406 95.070312 58.636719 95.566406 59.351562 96.035156 C 60.0625 96.503906 60.796875 96.941406 61.546875 97.347656 C 62.300781 97.75 63.066406 98.125 63.851562 98.464844 C 64.632812 98.804688 65.429688 99.109375 66.242188 99.378906 C 67.730469 99.617188 68.207031 98.695312 68.207031 97.890625 L 68.207031 92.855469 C 59.953125 94.648438 58.199219 88.863281 58.199219 88.863281 C 56.832031 85.40625 54.890625 84.484375 54.890625 84.484375 C 52.179688 82.636719 55.101562 82.695312 55.101562 82.695312 C 58.078125 82.90625 59.660156 85.765625 59.660156 85.765625 C 62.25 90.292969 66.628906 88.953125 68.328125 88.238281 C 68.597656 86.300781 69.382812 84.988281 70.207031 84.246094 C 63.582031 83.5 56.648438 80.9375 56.648438 69.585938 C 56.648438 66.28125 57.78125 63.628906 59.714844 61.511719 C 59.417969 60.769531 58.375 57.671875 60.015625 53.648438 C 60.015625 53.648438 62.519531 52.84375 68.207031 56.6875 C 70.648438 56.03125 73.128906 55.703125 75.65625 55.703125 C 78.183594 55.703125 80.664062 56.03125 83.105469 56.6875 C 88.800781 52.84375 91.296875 53.648438 91.296875 53.648438 C 92.933594 57.671875 91.894531 60.769531 91.597656 61.511719 C 93.53125 63.621094 94.664062 66.28125 94.664062 69.585938 C 94.664062 80.96875 87.691406 83.46875 81.050781 84.214844 C 82.121094 85.140625 83.105469 86.957031 83.105469 89.726562 L 83.105469 97.890625 C 83.105469 98.695312 83.582031 99.648438 85.101562 99.378906 C 85.964844 99.089844 86.816406 98.761719 87.648438 98.394531 C 88.484375 98.027344 89.296875 97.621094 90.09375 97.179688 C 90.894531 96.738281 91.667969 96.261719 92.421875 95.746094 C 93.175781 95.234375 93.902344 94.6875 94.605469 94.105469 C 95.308594 93.527344 95.984375 92.917969 96.628906 92.273438 C 97.277344 91.632812 97.894531 90.960938 98.480469 90.261719 C 99.066406 89.566406 99.617188 88.839844 100.136719 88.09375 C 100.65625 87.34375 101.140625 86.570312 101.589844 85.777344 C 102.035156 84.984375 102.449219 84.171875 102.820312 83.339844 C 103.195312 82.511719 103.53125 81.664062 103.828125 80.800781 C 104.125 79.941406 104.378906 79.066406 104.597656 78.179688 C 104.8125 77.296875 104.988281 76.402344 105.121094 75.5 C 105.257812 74.597656 105.351562 73.691406 105.402344 72.78125 C 105.453125 71.871094 105.460938 70.960938 105.429688 70.050781 C 105.398438 69.140625 105.324219 68.234375 105.207031 67.328125 C 105.09375 66.425781 104.9375 65.527344 104.738281 64.636719 C 104.542969 63.746094 104.304688 62.867188 104.027344 62 C 103.746094 61.132812 103.429688 60.28125 103.074219 59.441406 C 102.71875 58.601562 102.324219 57.78125 101.890625 56.976562 C 101.460938 56.175781 100.992188 55.394531 100.488281 54.632812 C 99.984375 53.875 99.449219 53.140625 98.878906 52.429688 C 98.308594 51.71875 97.703125 51.035156 97.070312 50.378906 C 96.4375 49.722656 95.777344 49.097656 95.085938 48.503906 C 94.394531 47.910156 93.679688 47.347656 92.9375 46.820312 C 92.195312 46.289062 91.429688 45.796875 90.640625 45.335938 C 89.855469 44.878906 89.046875 44.457031 88.222656 44.070312 C 87.394531 43.6875 86.550781 43.339844 85.695312 43.03125 C 84.835938 42.722656 83.964844 42.457031 83.082031 42.226562 C 82.203125 42 81.308594 41.8125 80.410156 41.667969 C 79.511719 41.519531 78.605469 41.414062 77.699219 41.351562 C 76.789062 41.289062 75.878906 41.269531 74.964844 41.289062 C 74.054688 41.308594 73.148438 41.371094 72.242188 41.472656 Z M 72.242188 41.472656 " fill-opacity="1" fill-rule="nonzero"/></g><g fill="#ffffff" fill-opacity="1"><g transform="translate(195.30634, 56.991463)"><g><path d="M 1.765625 0.09375 C 1.585938 0.09375 1.457031 0.03125 1.375 -0.09375 C 1.289062 -0.226562 1.25 -0.378906 1.25 -0.546875 C 1.269531 -0.835938 1.328125 -1.007812 1.421875 -1.0625 C 1.515625 -1.125 1.695312 -1.15625 1.96875 -1.15625 C 2.53125 -1.15625 2.945312 -1.253906 3.21875 -1.453125 C 3.488281 -1.660156 3.65625 -1.914062 3.71875 -2.21875 C 3.789062 -2.519531 3.835938 -2.910156 3.859375 -3.390625 L 3.859375 -14.890625 C 3.835938 -15.367188 3.789062 -15.757812 3.71875 -16.0625 C 3.65625 -16.363281 3.488281 -16.613281 3.21875 -16.8125 C 2.945312 -17.019531 2.53125 -17.125 1.96875 -17.125 L 1.796875 -17.125 C 1.597656 -17.125 1.460938 -17.15625 1.390625 -17.21875 C 1.316406 -17.289062 1.269531 -17.460938 1.25 -17.734375 C 1.25 -17.898438 1.289062 -18.046875 1.375 -18.171875 C 1.457031 -18.296875 1.585938 -18.359375 1.765625 -18.359375 C 3.023438 -18.304688 4.164062 -18.28125 5.1875 -18.28125 C 6.34375 -18.28125 7.550781 -18.304688 8.8125 -18.359375 C 8.976562 -18.359375 9.101562 -18.296875 9.1875 -18.171875 C 9.28125 -18.046875 9.328125 -17.898438 9.328125 -17.734375 C 9.304688 -17.441406 9.25 -17.265625 9.15625 -17.203125 C 9.0625 -17.148438 8.878906 -17.125 8.609375 -17.125 C 8.046875 -17.125 7.628906 -17.019531 7.359375 -16.8125 C 7.085938 -16.613281 6.914062 -16.363281 6.84375 -16.0625 C 6.78125 -15.757812 6.738281 -15.367188 6.71875 -14.890625 L 6.71875 -9.765625 L 15.8125 -9.765625 L 15.8125 -14.890625 C 15.789062 -15.367188 15.742188 -15.757812 15.671875 -16.0625 C 15.609375 -16.363281 15.441406 -16.613281 15.171875 -16.8125 C 14.910156 -17.019531 14.5 -17.125 13.9375 -17.125 L 13.765625 -17.125 C 13.566406 -17.125 13.421875 -17.15625 13.328125 -17.21875 C 13.242188 -17.289062 13.195312 -17.460938 13.1875 -17.734375 C 13.1875 -17.898438 13.234375 -18.046875 13.328125 -18.171875 C 13.421875 -18.296875 13.546875 -18.359375 13.703125 -18.359375 C 14.953125 -18.304688 16.160156 -18.28125 17.328125 -18.28125 C 18.390625 -18.28125 19.535156 -18.304688 20.765625 -18.359375 C 20.941406 -18.359375 21.070312 -18.296875 21.15625 -18.171875 C 21.25 -18.046875 21.296875 -17.898438 21.296875 -17.734375 C 21.273438 -17.441406 21.207031 -17.265625 21.09375 -17.203125 C 20.988281 -17.148438 20.8125 -17.125 20.5625 -17.125 C 20.007812 -17.125 19.59375 -17.019531 19.3125 -16.8125 C 19.03125 -16.613281 18.851562 -16.363281 18.78125 -16.0625 C 18.71875 -15.757812 18.675781 -15.367188 18.65625 -14.890625 L 18.65625 -3.390625 C 18.675781 -2.910156 18.71875 -2.519531 18.78125 -2.21875 C 18.851562 -1.914062 19.03125 -1.660156 19.3125 -1.453125 C 19.59375 -1.253906 20.007812 -1.15625 20.5625 -1.15625 L 20.734375 -1.15625 C 20.910156 -1.15625 21.039062 -1.117188 21.125 -1.046875 C 21.21875 -0.984375 21.273438 -0.816406 21.296875 -0.546875 C 21.296875 -0.378906 21.25 -0.226562 21.15625 -0.09375 C 21.070312 0.03125 20.941406 0.09375 20.765625 0.09375 C 19.535156 0.03125 18.378906 0 17.296875 0 C 16.148438 0 14.953125 0.03125 13.703125 0.09375 C 13.546875 0.09375 13.421875 0.03125 13.328125 -0.09375 C 13.234375 -0.226562 13.1875 -0.378906 13.1875 -0.546875 C 13.195312 -0.835938 13.253906 -1.007812 13.359375 -1.0625 C 13.472656 -1.125 13.664062 -1.15625 13.9375 -1.15625 C 14.5 -1.15625 14.910156 -1.253906 15.171875 -1.453125 C 15.441406 -1.660156 15.609375 -1.914062 15.671875 -2.21875 C 15.742188 -2.519531 15.789062 -2.910156 15.8125 -3.390625 L 15.8125 -8.515625 L 6.71875 -8.515625 L 6.71875 -3.390625 C 6.738281 -2.910156 6.78125 -2.519531 6.84375 -2.21875 C 6.914062 -1.914062 7.085938 -1.660156 7.359375 -1.453125 C 7.628906 -1.253906 8.046875 -1.15625 8.609375 -1.15625 L 8.78125 -1.15625 C 8.96875 -1.15625 9.097656 -1.117188 9.171875 -1.046875 C 9.253906 -0.984375 9.304688 -0.816406 9.328125 -0.546875 C 9.328125 -0.378906 9.28125 -0.226562 9.1875 -0.09375 C 9.101562 0.03125 8.976562 0.09375 8.8125 0.09375 C 7.570312 0.03125 6.375 0 5.21875 0 C 4.175781 0 3.023438 0.03125 1.765625 0.09375 Z M 1.765625 0.09375 "/></g></g></g><g fill="#ffffff" fill-opacity="1"><g transform="translate(217.810054, 56.991463)"><g><path d="M 1.421875 0.09375 C 1.285156 0.09375 1.171875 0.0351562 1.078125 -0.078125 C 0.992188 -0.203125 0.953125 -0.34375 0.953125 -0.5 C 0.972656 -0.75 1.03125 -0.894531 1.125 -0.9375 C 1.226562 -0.988281 1.40625 -1.015625 1.65625 -1.015625 C 2.15625 -1.015625 2.507812 -1.097656 2.71875 -1.265625 C 2.9375 -1.441406 3.054688 -1.644531 3.078125 -1.875 C 3.109375 -2.113281 3.125 -2.484375 3.125 -2.984375 L 3.125 -9.625 C 3.125 -10.125 3.109375 -10.488281 3.078125 -10.71875 C 3.054688 -10.945312 2.9375 -11.148438 2.71875 -11.328125 C 2.507812 -11.503906 2.15625 -11.59375 1.65625 -11.59375 C 1.414062 -11.59375 1.238281 -11.625 1.125 -11.6875 C 1.007812 -11.757812 0.953125 -11.921875 0.953125 -12.171875 C 0.953125 -12.285156 0.988281 -12.394531 1.0625 -12.5 C 1.144531 -12.601562 1.265625 -12.664062 1.421875 -12.6875 C 2.640625 -12.863281 3.679688 -13.113281 4.546875 -13.4375 C 4.816406 -13.539062 5.039062 -13.597656 5.21875 -13.609375 L 5.296875 -13.609375 C 5.609375 -13.609375 5.765625 -13.425781 5.765625 -13.0625 L 5.765625 -2.984375 C 5.765625 -2.484375 5.78125 -2.113281 5.8125 -1.875 C 5.851562 -1.644531 5.976562 -1.441406 6.1875 -1.265625 C 6.40625 -1.097656 6.765625 -1.015625 7.265625 -1.015625 L 7.4375 -1.015625 C 7.59375 -1.015625 7.707031 -0.984375 7.78125 -0.921875 C 7.863281 -0.867188 7.914062 -0.726562 7.9375 -0.5 C 7.9375 -0.34375 7.894531 -0.203125 7.8125 -0.078125 C 7.738281 0.0351562 7.625 0.09375 7.46875 0.09375 C 6.351562 0.03125 5.34375 0 4.4375 0 C 3.5625 0 2.554688 0.03125 1.421875 0.09375 Z M 4.28125 -16.828125 C 3.738281 -16.828125 3.285156 -16.992188 2.921875 -17.328125 C 2.554688 -17.671875 2.375 -18.09375 2.375 -18.59375 C 2.375 -19.039062 2.59375 -19.4375 3.03125 -19.78125 C 3.476562 -20.132812 3.984375 -20.3125 4.546875 -20.3125 C 5.023438 -20.3125 5.414062 -20.140625 5.71875 -19.796875 C 6.03125 -19.460938 6.1875 -19.035156 6.1875 -18.515625 C 6.1875 -18.046875 6.003906 -17.644531 5.640625 -17.3125 C 5.273438 -16.988281 4.820312 -16.828125 4.28125 -16.828125 Z M 4.28125 -16.828125 "/></g></g></g><g fill="#ffffff" fill-opacity="1"><g transform="translate(226.382901, 56.991463)"><g><path d="M 1.09375 3.46875 C 0.925781 3.550781 0.773438 3.535156 0.640625 3.421875 C 0.503906 3.304688 0.4375 3.160156 0.4375 2.984375 C 0.4375 2.785156 0.53125 2.648438 0.71875 2.578125 C 1.550781 2.265625 2.171875 1.898438 2.578125 1.484375 C 2.984375 1.078125 3.1875 0.582031 3.1875 0 C 3.1875 -0.332031 3.085938 -0.597656 2.890625 -0.796875 C 2.703125 -0.992188 2.429688 -1.210938 2.078125 -1.453125 C 1.734375 -1.679688 1.46875 -1.890625 1.28125 -2.078125 C 1.101562 -2.273438 1.015625 -2.519531 1.015625 -2.8125 C 1.015625 -3.175781 1.160156 -3.507812 1.453125 -3.8125 C 1.742188 -4.113281 2.082031 -4.265625 2.46875 -4.265625 C 3.007812 -4.265625 3.5 -4.09375 3.9375 -3.75 C 4.382812 -3.414062 4.738281 -2.976562 5 -2.4375 C 5.257812 -1.894531 5.390625 -1.351562 5.390625 -0.8125 C 5.390625 0.289062 4.972656 1.191406 4.140625 1.890625 C 3.304688 2.597656 2.289062 3.125 1.09375 3.46875 Z M 1.09375 3.46875 "/></g></g></g><g fill="#ffffff" fill-opacity="1"><g transform="translate(233.246965, 56.991463)"><g/></g></g><g fill="#ffffff" fill-opacity="1"><g transform="translate(239.705559, 56.991463)"><g><path d="M 7.671875 0.578125 C 5.648438 0.578125 4.101562 0.226562 3.03125 -0.46875 C 1.957031 -1.175781 1.421875 -2.21875 1.421875 -3.59375 C 1.421875 -4.289062 1.65625 -4.863281 2.125 -5.3125 C 2.601562 -5.769531 3.21875 -6 3.96875 -6 C 4.414062 -5.976562 4.753906 -5.863281 4.984375 -5.65625 C 5.210938 -5.457031 5.328125 -5.269531 5.328125 -5.09375 C 5.328125 -5.070312 5.226562 -5.003906 5.03125 -4.890625 C 4.84375 -4.773438 4.671875 -4.601562 4.515625 -4.375 C 4.359375 -4.144531 4.28125 -3.828125 4.28125 -3.421875 C 4.28125 -2.515625 4.554688 -1.8125 5.109375 -1.3125 C 5.660156 -0.820312 6.515625 -0.578125 7.671875 -0.578125 C 8.460938 -0.578125 9.15625 -0.726562 9.75 -1.03125 C 10.351562 -1.34375 10.8125 -1.753906 11.125 -2.265625 C 11.445312 -2.785156 11.609375 -3.320312 11.609375 -3.875 C 11.609375 -4.570312 11.410156 -5.171875 11.015625 -5.671875 C 10.617188 -6.179688 10.128906 -6.601562 9.546875 -6.9375 C 8.972656 -7.269531 8.1875 -7.660156 7.1875 -8.109375 C 6.03125 -8.628906 5.09375 -9.101562 4.375 -9.53125 C 3.65625 -9.957031 3.046875 -10.519531 2.546875 -11.21875 C 2.046875 -11.925781 1.796875 -12.800781 1.796875 -13.84375 C 1.796875 -15.53125 2.367188 -16.785156 3.515625 -17.609375 C 4.671875 -18.441406 6.179688 -18.859375 8.046875 -18.859375 C 9.515625 -18.859375 10.796875 -18.546875 11.890625 -17.921875 C 12.984375 -17.304688 13.53125 -16.398438 13.53125 -15.203125 C 13.53125 -14.515625 13.289062 -13.941406 12.8125 -13.484375 C 12.34375 -13.023438 11.734375 -12.796875 10.984375 -12.796875 C 10.535156 -12.816406 10.195312 -12.925781 9.96875 -13.125 C 9.738281 -13.332031 9.625 -13.523438 9.625 -13.703125 C 9.625 -13.722656 9.753906 -13.789062 10.015625 -13.90625 C 10.273438 -14.019531 10.503906 -14.191406 10.703125 -14.421875 C 10.910156 -14.660156 11.015625 -14.976562 11.015625 -15.375 C 11.015625 -16.09375 10.738281 -16.65625 10.1875 -17.0625 C 9.632812 -17.46875 8.929688 -17.671875 8.078125 -17.671875 C 6.898438 -17.671875 6.003906 -17.394531 5.390625 -16.84375 C 4.785156 -16.289062 4.484375 -15.609375 4.484375 -14.796875 C 4.484375 -14.128906 4.664062 -13.566406 5.03125 -13.109375 C 5.40625 -12.648438 6 -12.203125 6.8125 -11.765625 C 7.46875 -11.410156 8.179688 -11.0625 8.953125 -10.71875 C 10.191406 -10.15625 11.171875 -9.640625 11.890625 -9.171875 C 12.617188 -8.710938 13.226562 -8.109375 13.71875 -7.359375 C 14.207031 -6.609375 14.453125 -5.671875 14.453125 -4.546875 C 14.453125 -3.578125 14.144531 -2.703125 13.53125 -1.921875 C 12.925781 -1.140625 12.109375 -0.523438 11.078125 -0.078125 C 10.046875 0.359375 8.910156 0.578125 7.671875 0.578125 Z M 7.671875 0.578125 "/></g></g></g><g fill="#ffffff" fill-opacity="1"><g transform="translate(255.490015, 56.991463)"><g><path d="M 7.9375 0.34375 C 6.625 0.34375 5.453125 0.03125 4.421875 -0.59375 C 3.398438 -1.21875 2.601562 -2.046875 2.03125 -3.078125 C 1.46875 -4.117188 1.1875 -5.21875 1.1875 -6.375 C 1.1875 -7.820312 1.523438 -9.082031 2.203125 -10.15625 C 2.878906 -11.226562 3.738281 -12.046875 4.78125 -12.609375 C 5.820312 -13.179688 6.875 -13.46875 7.9375 -13.46875 C 9.25 -13.46875 10.414062 -13.15625 11.4375 -12.53125 C 12.46875 -11.90625 13.265625 -11.070312 13.828125 -10.03125 C 14.398438 -9 14.6875 -7.90625 14.6875 -6.75 C 14.6875 -5.300781 14.34375 -4.039062 13.65625 -2.96875 C 12.96875 -1.894531 12.101562 -1.070312 11.0625 -0.5 C 10.019531 0.0625 8.976562 0.34375 7.9375 0.34375 Z M 7.9375 -0.71875 C 9.25 -0.71875 10.207031 -1.273438 10.8125 -2.390625 C 11.425781 -3.515625 11.734375 -4.96875 11.734375 -6.75 C 11.734375 -8.40625 11.414062 -9.757812 10.78125 -10.8125 C 10.15625 -11.875 9.207031 -12.40625 7.9375 -12.40625 C 6.601562 -12.40625 5.632812 -11.851562 5.03125 -10.75 C 4.4375 -9.644531 4.140625 -8.207031 4.140625 -6.4375 C 4.140625 -4.769531 4.445312 -3.398438 5.0625 -2.328125 C 5.6875 -1.253906 6.644531 -0.71875 7.9375 -0.71875 Z M 7.9375 -0.71875 "/></g></g></g><g fill="#ffffff" fill-opacity="1"><g transform="translate(271.361362, 56.991463)"><g><path d="M 6.953125 0.34375 C 5.640625 0.34375 4.597656 -0.0507812 3.828125 -0.84375 C 3.054688 -1.632812 2.671875 -2.675781 2.671875 -3.96875 L 2.671875 -9.328125 C 2.671875 -9.828125 2.65625 -10.191406 2.625 -10.421875 C 2.59375 -10.660156 2.46875 -10.863281 2.25 -11.03125 C 2.039062 -11.207031 1.6875 -11.296875 1.1875 -11.296875 C 0.957031 -11.296875 0.785156 -11.328125 0.671875 -11.390625 C 0.554688 -11.460938 0.5 -11.625 0.5 -11.875 C 0.5 -11.988281 0.535156 -12.097656 0.609375 -12.203125 C 0.679688 -12.316406 0.796875 -12.382812 0.953125 -12.40625 C 2.171875 -12.570312 3.210938 -12.820312 4.078125 -13.15625 C 4.347656 -13.25 4.570312 -13.304688 4.75 -13.328125 L 4.84375 -13.328125 C 5.144531 -13.328125 5.296875 -13.144531 5.296875 -12.78125 L 5.296875 -4 C 5.296875 -3.113281 5.578125 -2.429688 6.140625 -1.953125 C 6.703125 -1.484375 7.347656 -1.25 8.078125 -1.25 C 8.984375 -1.25 9.753906 -1.46875 10.390625 -1.90625 C 11.035156 -2.351562 11.460938 -2.800781 11.671875 -3.25 L 11.671875 -9.328125 C 11.671875 -9.828125 11.65625 -10.191406 11.625 -10.421875 C 11.601562 -10.660156 11.484375 -10.863281 11.265625 -11.03125 C 11.054688 -11.207031 10.703125 -11.296875 10.203125 -11.296875 C 9.960938 -11.296875 9.785156 -11.328125 9.671875 -11.390625 C 9.554688 -11.460938 9.5 -11.625 9.5 -11.875 C 9.5 -11.988281 9.535156 -12.097656 9.609375 -12.203125 C 9.691406 -12.316406 9.8125 -12.382812 9.96875 -12.40625 C 11.1875 -12.570312 12.226562 -12.820312 13.09375 -13.15625 C 13.363281 -13.25 13.585938 -13.304688 13.765625 -13.328125 L 13.84375 -13.328125 C 14.15625 -13.328125 14.3125 -13.144531 14.3125 -12.78125 L 14.3125 -2.75 C 14.3125 -1.613281 15.070312 -1.046875 16.59375 -1.046875 C 16.925781 -1.046875 17.09375 -0.863281 17.09375 -0.5 C 17.09375 -0.226562 16.925781 -0.0625 16.59375 0 L 11.9375 0.3125 C 11.800781 0.3125 11.722656 0.269531 11.703125 0.1875 C 11.679688 0.101562 11.671875 -0.046875 11.671875 -0.265625 L 11.671875 -1.890625 L 11.609375 -1.890625 C 11.054688 -1.359375 10.601562 -0.953125 10.25 -0.671875 C 9.90625 -0.398438 9.457031 -0.164062 8.90625 0.03125 C 8.351562 0.238281 7.703125 0.34375 6.953125 0.34375 Z M 6.953125 0.34375 "/></g></g></g><g fill="#ffffff" fill-opacity="1"><g transform="translate(288.622892, 56.991463)"><g/></g></g><g fill="#ffffff" fill-opacity="1"><g transform="translate(295.081486, 56.991463)"><g><path d="M 7.9375 0.34375 C 6.625 0.34375 5.453125 0.03125 4.421875 -0.59375 C 3.398438 -1.21875 2.601562 -2.046875 2.03125 -3.078125 C 1.46875 -4.117188 1.1875 -5.21875 1.1875 -6.375 C 1.1875 -7.820312 1.523438 -9.082031 2.203125 -10.15625 C 2.878906 -11.226562 3.738281 -12.046875 4.78125 -12.609375 C 5.820312 -13.179688 6.875 -13.46875 7.9375 -13.46875 C 9.25 -13.46875 10.414062 -13.15625 11.4375 -12.53125 C 12.46875 -11.90625 13.265625 -11.070312 13.828125 -10.03125 C 14.398438 -9 14.6875 -7.90625 14.6875 -6.75 C 14.6875 -5.300781 14.34375 -4.039062 13.65625 -2.96875 C 12.96875 -1.894531 12.101562 -1.070312 11.0625 -0.5 C 10.019531 0.0625 8.976562 0.34375 7.9375 0.34375 Z M 7.9375 -0.71875 C 9.25 -0.71875 10.207031 -1.273438 10.8125 -2.390625 C 11.425781 -3.515625 11.734375 -4.96875 11.734375 -6.75 C 11.734375 -8.40625 11.414062 -9.757812 10.78125 -10.8125 C 10.15625 -11.875 9.207031 -12.40625 7.9375 -12.40625 C 6.601562 -12.40625 5.632812 -11.851562 5.03125 -10.75 C 4.4375 -9.644531 4.140625 -8.207031 4.140625 -6.4375 C 4.140625 -4.769531 4.445312 -3.398438 5.0625 -2.328125 C 5.6875 -1.253906 6.644531 -0.71875 7.9375 -0.71875 Z M 7.9375 -0.71875 "/></g></g></g><g fill="#ffffff" fill-opacity="1"><g transform="translate(310.952834, 56.991463)"><g/></g></g><g fill="#ffffff" fill-opacity="1"><g transform="translate(317.411428, 56.991463)"><g><path d="M 10.40625 0.578125 C 8.71875 0.578125 7.191406 0.226562 5.828125 -0.46875 C 4.472656 -1.175781 3.398438 -2.25 2.609375 -3.6875 C 1.816406 -5.132812 1.421875 -6.910156 1.421875 -9.015625 C 1.421875 -10.960938 1.847656 -12.675781 2.703125 -14.15625 C 3.566406 -15.644531 4.757812 -16.800781 6.28125 -17.625 C 7.8125 -18.445312 9.5625 -18.859375 11.53125 -18.859375 C 12.5 -18.859375 13.453125 -18.710938 14.390625 -18.421875 C 15.335938 -18.128906 16.117188 -17.675781 16.734375 -17.0625 C 17.359375 -16.445312 17.671875 -15.6875 17.671875 -14.78125 C 17.671875 -13.925781 17.421875 -13.1875 16.921875 -12.5625 C 16.421875 -11.945312 15.753906 -11.640625 14.921875 -11.640625 C 14.515625 -11.640625 14.125 -11.734375 13.75 -11.921875 C 13.375 -12.117188 13.175781 -12.375 13.15625 -12.6875 C 13.15625 -12.707031 13.285156 -12.8125 13.546875 -13 C 13.804688 -13.195312 14.046875 -13.457031 14.265625 -13.78125 C 14.484375 -14.113281 14.59375 -14.515625 14.59375 -14.984375 C 14.59375 -15.785156 14.273438 -16.4375 13.640625 -16.9375 C 13.003906 -17.445312 12.1875 -17.703125 11.1875 -17.703125 C 9.988281 -17.703125 8.90625 -17.367188 7.9375 -16.703125 C 6.96875 -16.035156 6.203125 -15.054688 5.640625 -13.765625 C 5.085938 -12.484375 4.8125 -10.957031 4.8125 -9.1875 C 4.8125 -7.46875 5.082031 -5.976562 5.625 -4.71875 C 6.175781 -3.46875 6.945312 -2.507812 7.9375 -1.84375 C 8.9375 -1.175781 10.09375 -0.84375 11.40625 -0.84375 C 12.03125 -0.84375 12.570312 -0.875 13.03125 -0.9375 C 13.5 -1.007812 14.003906 -1.128906 14.546875 -1.296875 L 14.546875 -4.265625 C 14.546875 -4.929688 14.519531 -5.398438 14.46875 -5.671875 C 14.414062 -5.941406 14.257812 -6.144531 14 -6.28125 C 13.738281 -6.414062 13.300781 -6.484375 12.6875 -6.484375 C 12.476562 -6.484375 12.320312 -6.515625 12.21875 -6.578125 C 12.125 -6.648438 12.066406 -6.820312 12.046875 -7.09375 C 12.046875 -7.269531 12.097656 -7.421875 12.203125 -7.546875 C 12.316406 -7.671875 12.46875 -7.734375 12.65625 -7.734375 C 13.875 -7.671875 14.9375 -7.640625 15.84375 -7.640625 C 16.71875 -7.640625 17.757812 -7.671875 18.96875 -7.734375 C 19.144531 -7.734375 19.28125 -7.671875 19.375 -7.546875 C 19.476562 -7.421875 19.53125 -7.269531 19.53125 -7.09375 C 19.507812 -6.820312 19.445312 -6.648438 19.34375 -6.578125 C 19.25 -6.515625 19.097656 -6.484375 18.890625 -6.484375 C 18.304688 -6.484375 17.890625 -6.40625 17.640625 -6.25 C 17.390625 -6.101562 17.234375 -5.890625 17.171875 -5.609375 C 17.117188 -5.328125 17.09375 -4.878906 17.09375 -4.265625 L 17.09375 -0.84375 C 15.945312 -0.300781 14.898438 0.0664062 13.953125 0.265625 C 13.015625 0.472656 11.832031 0.578125 10.40625 0.578125 Z M 10.40625 0.578125 "/></g></g></g><g fill="#ffffff" fill-opacity="1"><g transform="translate(337.453345, 56.991463)"><g><path d="M 4.859375 0.34375 C 3.703125 0.34375 2.765625 0.015625 2.046875 -0.640625 C 1.335938 -1.296875 0.984375 -2.113281 0.984375 -3.09375 C 0.984375 -4.3125 1.390625 -5.222656 2.203125 -5.828125 C 3.015625 -6.441406 3.976562 -6.835938 5.09375 -7.015625 C 6.21875 -7.203125 7.664062 -7.34375 9.4375 -7.4375 L 9.4375 -9.734375 C 9.4375 -10.679688 9.203125 -11.398438 8.734375 -11.890625 C 8.265625 -12.378906 7.503906 -12.625 6.453125 -12.625 C 5.859375 -12.625 5.335938 -12.441406 4.890625 -12.078125 C 4.453125 -11.710938 4.234375 -11.222656 4.234375 -10.609375 C 4.234375 -10.296875 4.300781 -10.035156 4.4375 -9.828125 C 4.582031 -9.628906 4.738281 -9.460938 4.90625 -9.328125 C 5.070312 -9.191406 5.15625 -9.113281 5.15625 -9.09375 C 5.15625 -8.976562 5.035156 -8.828125 4.796875 -8.640625 C 4.554688 -8.460938 4.257812 -8.375 3.90625 -8.375 C 3.332031 -8.375 2.875 -8.582031 2.53125 -9 C 2.195312 -9.425781 2.03125 -9.929688 2.03125 -10.515625 C 2.03125 -11.515625 2.476562 -12.253906 3.375 -12.734375 C 4.269531 -13.222656 5.359375 -13.46875 6.640625 -13.46875 C 8.222656 -13.46875 9.507812 -13.164062 10.5 -12.5625 C 11.5 -11.96875 12 -10.859375 12 -9.234375 L 12 -2.484375 C 12.007812 -2.085938 12.128906 -1.703125 12.359375 -1.328125 C 12.597656 -0.960938 12.976562 -0.78125 13.5 -0.78125 C 13.65625 -0.78125 13.765625 -0.75 13.828125 -0.6875 C 13.898438 -0.632812 13.9375 -0.507812 13.9375 -0.3125 C 13.9375 -0.0820312 13.753906 0.0820312 13.390625 0.1875 C 13.035156 0.289062 12.6875 0.34375 12.34375 0.34375 C 11.601562 0.34375 10.953125 0.132812 10.390625 -0.28125 C 9.835938 -0.707031 9.519531 -1.28125 9.4375 -2 C 9.03125 -1.25 8.40625 -0.671875 7.5625 -0.265625 C 6.726562 0.140625 5.828125 0.34375 4.859375 0.34375 Z M 5.796875 -1.21875 C 6.453125 -1.21875 7.054688 -1.378906 7.609375 -1.703125 C 8.171875 -2.035156 8.613281 -2.484375 8.9375 -3.046875 C 9.269531 -3.617188 9.4375 -4.253906 9.4375 -4.953125 L 9.4375 -6.609375 C 7.414062 -6.453125 5.988281 -6.117188 5.15625 -5.609375 C 4.320312 -5.109375 3.90625 -4.300781 3.90625 -3.1875 C 3.90625 -1.875 4.535156 -1.21875 5.796875 -1.21875 Z M 5.796875 -1.21875 "/></g></g></g><g fill="#ffffff" fill-opacity="1"><g transform="translate(351.963456, 56.991463)"><g><path d="M 2.8125 0.40625 C 2.632812 0.40625 2.5 0.351562 2.40625 0.25 C 2.3125 0.144531 2.265625 0.00390625 2.265625 -0.171875 L 2.265625 -17.09375 C 2.265625 -17.59375 2.25 -17.957031 2.21875 -18.1875 C 2.1875 -18.425781 2.0625 -18.628906 1.84375 -18.796875 C 1.632812 -18.972656 1.28125 -19.0625 0.78125 -19.0625 C 0.550781 -19.0625 0.378906 -19.09375 0.265625 -19.15625 C 0.148438 -19.226562 0.09375 -19.390625 0.09375 -19.640625 C 0.09375 -19.753906 0.128906 -19.863281 0.203125 -19.96875 C 0.273438 -20.082031 0.390625 -20.144531 0.546875 -20.15625 C 1.765625 -20.332031 2.804688 -20.585938 3.671875 -20.921875 C 3.941406 -21.015625 4.164062 -21.070312 4.34375 -21.09375 L 4.4375 -21.09375 C 4.738281 -21.09375 4.890625 -20.90625 4.890625 -20.53125 L 4.890625 -11.796875 L 4.984375 -11.796875 C 5.546875 -12.347656 6.175781 -12.765625 6.875 -13.046875 C 7.582031 -13.328125 8.285156 -13.46875 8.984375 -13.46875 C 10.117188 -13.46875 11.148438 -13.175781 12.078125 -12.59375 C 13.003906 -12.019531 13.734375 -11.210938 14.265625 -10.171875 C 14.796875 -9.140625 15.0625 -7.96875 15.0625 -6.65625 C 15.0625 -5.363281 14.753906 -4.179688 14.140625 -3.109375 C 13.535156 -2.035156 12.722656 -1.191406 11.703125 -0.578125 C 10.679688 0.0351562 9.59375 0.34375 8.4375 0.34375 C 6.71875 0.34375 5.226562 -0.128906 3.96875 -1.078125 L 3.828125 -1.078125 C 3.742188 -0.921875 3.65625 -0.707031 3.5625 -0.4375 C 3.46875 -0.164062 3.363281 0.0390625 3.25 0.1875 C 3.132812 0.332031 2.988281 0.40625 2.8125 0.40625 Z M 8.171875 -0.640625 C 9.347656 -0.640625 10.296875 -1.175781 11.015625 -2.25 C 11.742188 -3.320312 12.109375 -4.753906 12.109375 -6.546875 C 12.109375 -8.054688 11.757812 -9.34375 11.0625 -10.40625 C 10.363281 -11.476562 9.332031 -12.015625 7.96875 -12.015625 C 6.75 -12.015625 5.722656 -11.570312 4.890625 -10.6875 L 4.890625 -3.046875 C 4.953125 -2.734375 5.125 -2.390625 5.40625 -2.015625 C 5.6875 -1.640625 6.0625 -1.316406 6.53125 -1.046875 C 7.007812 -0.773438 7.554688 -0.640625 8.171875 -0.640625 Z M 8.171875 -0.640625 "/></g></g></g><g fill="#ffffff" fill-opacity="1"><g transform="translate(368.211306, 56.991463)"><g><path d="M 1.421875 0.09375 C 1.285156 0.09375 1.171875 0.0351562 1.078125 -0.078125 C 0.992188 -0.203125 0.953125 -0.34375 0.953125 -0.5 C 0.972656 -0.75 1.03125 -0.894531 1.125 -0.9375 C 1.226562 -0.988281 1.40625 -1.015625 1.65625 -1.015625 C 2.15625 -1.015625 2.507812 -1.097656 2.71875 -1.265625 C 2.9375 -1.441406 3.054688 -1.644531 3.078125 -1.875 C 3.109375 -2.113281 3.125 -2.484375 3.125 -2.984375 L 3.125 -9.625 C 3.125 -10.125 3.109375 -10.488281 3.078125 -10.71875 C 3.054688 -10.945312 2.9375 -11.148438 2.71875 -11.328125 C 2.507812 -11.503906 2.15625 -11.59375 1.65625 -11.59375 C 1.414062 -11.59375 1.238281 -11.625 1.125 -11.6875 C 1.007812 -11.757812 0.953125 -11.921875 0.953125 -12.171875 C 0.953125 -12.285156 0.988281 -12.394531 1.0625 -12.5 C 1.144531 -12.601562 1.265625 -12.664062 1.421875 -12.6875 C 2.671875 -12.882812 3.703125 -13.132812 4.515625 -13.4375 C 4.847656 -13.539062 5.070312 -13.597656 5.1875 -13.609375 L 5.265625 -13.609375 C 5.578125 -13.609375 5.734375 -13.425781 5.734375 -13.0625 L 5.734375 -11.265625 L 5.828125 -11.265625 C 6.503906 -11.941406 7.1875 -12.476562 7.875 -12.875 C 8.570312 -13.269531 9.203125 -13.46875 9.765625 -13.46875 C 10.398438 -13.46875 10.90625 -13.226562 11.28125 -12.75 C 11.65625 -12.28125 11.84375 -11.738281 11.84375 -11.125 C 11.84375 -10.582031 11.675781 -10.097656 11.34375 -9.671875 C 11.019531 -9.242188 10.570312 -9.03125 10 -9.03125 C 9.726562 -9.03125 9.488281 -9.085938 9.28125 -9.203125 C 9.082031 -9.328125 8.972656 -9.425781 8.953125 -9.5 C 8.972656 -9.539062 9.066406 -9.660156 9.234375 -9.859375 C 9.410156 -10.066406 9.5 -10.304688 9.5 -10.578125 C 9.5 -10.921875 9.40625 -11.195312 9.21875 -11.40625 C 9.039062 -11.625 8.796875 -11.734375 8.484375 -11.734375 C 8.160156 -11.734375 7.742188 -11.570312 7.234375 -11.25 C 6.734375 -10.9375 6.242188 -10.535156 5.765625 -10.046875 L 5.765625 -2.984375 C 5.765625 -2.484375 5.78125 -2.113281 5.8125 -1.875 C 5.851562 -1.644531 5.976562 -1.441406 6.1875 -1.265625 C 6.40625 -1.097656 6.765625 -1.015625 7.265625 -1.015625 L 7.4375 -1.015625 C 7.59375 -1.015625 7.707031 -0.984375 7.78125 -0.921875 C 7.863281 -0.867188 7.914062 -0.726562 7.9375 -0.5 C 7.9375 -0.34375 7.894531 -0.203125 7.8125 -0.078125 C 7.738281 0.0351562 7.625 0.09375 7.46875 0.09375 C 6.351562 0.03125 5.34375 0 4.4375 0 C 3.5625 0 2.554688 0.03125 1.421875 0.09375 Z M 1.421875 0.09375 "/></g></g></g><g fill="#ffffff" fill-opacity="1"><g transform="translate(380.520284, 56.991463)"><g><path d="M 1.421875 0.09375 C 1.285156 0.09375 1.171875 0.0351562 1.078125 -0.078125 C 0.992188 -0.203125 0.953125 -0.34375 0.953125 -0.5 C 0.972656 -0.75 1.03125 -0.894531 1.125 -0.9375 C 1.226562 -0.988281 1.40625 -1.015625 1.65625 -1.015625 C 2.15625 -1.015625 2.507812 -1.097656 2.71875 -1.265625 C 2.9375 -1.441406 3.054688 -1.644531 3.078125 -1.875 C 3.109375 -2.113281 3.125 -2.484375 3.125 -2.984375 L 3.125 -9.625 C 3.125 -10.125 3.109375 -10.488281 3.078125 -10.71875 C 3.054688 -10.945312 2.9375 -11.148438 2.71875 -11.328125 C 2.507812 -11.503906 2.15625 -11.59375 1.65625 -11.59375 C 1.414062 -11.59375 1.238281 -11.625 1.125 -11.6875 C 1.007812 -11.757812 0.953125 -11.921875 0.953125 -12.171875 C 0.953125 -12.285156 0.988281 -12.394531 1.0625 -12.5 C 1.144531 -12.601562 1.265625 -12.664062 1.421875 -12.6875 C 2.640625 -12.863281 3.679688 -13.113281 4.546875 -13.4375 C 4.816406 -13.539062 5.039062 -13.597656 5.21875 -13.609375 L 5.296875 -13.609375 C 5.609375 -13.609375 5.765625 -13.425781 5.765625 -13.0625 L 5.765625 -2.984375 C 5.765625 -2.484375 5.78125 -2.113281 5.8125 -1.875 C 5.851562 -1.644531 5.976562 -1.441406 6.1875 -1.265625 C 6.40625 -1.097656 6.765625 -1.015625 7.265625 -1.015625 L 7.4375 -1.015625 C 7.59375 -1.015625 7.707031 -0.984375 7.78125 -0.921875 C 7.863281 -0.867188 7.914062 -0.726562 7.9375 -0.5 C 7.9375 -0.34375 7.894531 -0.203125 7.8125 -0.078125 C 7.738281 0.0351562 7.625 0.09375 7.46875 0.09375 C 6.351562 0.03125 5.34375 0 4.4375 0 C 3.5625 0 2.554688 0.03125 1.421875 0.09375 Z M 4.28125 -16.828125 C 3.738281 -16.828125 3.285156 -16.992188 2.921875 -17.328125 C 2.554688 -17.671875 2.375 -18.09375 2.375 -18.59375 C 2.375 -19.039062 2.59375 -19.4375 3.03125 -19.78125 C 3.476562 -20.132812 3.984375 -20.3125 4.546875 -20.3125 C 5.023438 -20.3125 5.414062 -20.140625 5.71875 -19.796875 C 6.03125 -19.460938 6.1875 -19.035156 6.1875 -18.515625 C 6.1875 -18.046875 6.003906 -17.644531 5.640625 -17.3125 C 5.273438 -16.988281 4.820312 -16.828125 4.28125 -16.828125 Z M 4.28125 -16.828125 "/></g></g></g><g fill="#ffffff" fill-opacity="1"><g transform="translate(389.09314, 56.991463)"><g><path d="M 7.96875 0.34375 C 6.519531 0.34375 5.285156 0.0351562 4.265625 -0.578125 C 3.253906 -1.191406 2.488281 -2.03125 1.96875 -3.09375 C 1.445312 -4.15625 1.1875 -5.335938 1.1875 -6.640625 C 1.1875 -7.773438 1.453125 -8.867188 1.984375 -9.921875 C 2.515625 -10.972656 3.269531 -11.828125 4.25 -12.484375 C 5.238281 -13.140625 6.367188 -13.46875 7.640625 -13.46875 C 9.359375 -13.46875 10.679688 -13.023438 11.609375 -12.140625 C 12.535156 -11.265625 13.066406 -10.085938 13.203125 -8.609375 C 13.203125 -7.960938 13.03125 -7.523438 12.6875 -7.296875 C 12.34375 -7.066406 11.84375 -6.953125 11.1875 -6.953125 L 4.140625 -6.953125 C 4.140625 -5.160156 4.507812 -3.734375 5.25 -2.671875 C 6 -1.617188 7.15625 -1.09375 8.71875 -1.09375 C 9.550781 -1.09375 10.253906 -1.269531 10.828125 -1.625 C 11.410156 -1.988281 11.960938 -2.597656 12.484375 -3.453125 C 12.578125 -3.546875 12.675781 -3.59375 12.78125 -3.59375 C 12.914062 -3.59375 13.03125 -3.550781 13.125 -3.46875 C 13.3125 -3.351562 13.40625 -3.179688 13.40625 -2.953125 C 13.40625 -2.835938 13.390625 -2.75 13.359375 -2.6875 C 12.753906 -1.726562 11.992188 -0.984375 11.078125 -0.453125 C 10.160156 0.078125 9.125 0.34375 7.96875 0.34375 Z M 8.859375 -8.046875 C 9.847656 -8.046875 10.367188 -8.453125 10.421875 -9.265625 C 10.421875 -10.160156 10.179688 -10.914062 9.703125 -11.53125 C 9.222656 -12.144531 8.535156 -12.453125 7.640625 -12.453125 C 6.660156 -12.453125 5.851562 -12.0625 5.21875 -11.28125 C 4.582031 -10.5 4.222656 -9.421875 4.140625 -8.046875 Z M 8.859375 -8.046875 "/></g></g></g><g fill="#ffffff" fill-opacity="1"><g transform="translate(403.632229, 56.991463)"><g><path d="M 1.125 0.09375 C 0.988281 0.09375 0.878906 0.0351562 0.796875 -0.078125 C 0.710938 -0.203125 0.671875 -0.34375 0.671875 -0.5 C 0.679688 -0.75 0.726562 -0.894531 0.8125 -0.9375 C 0.90625 -0.988281 1.078125 -1.015625 1.328125 -1.015625 C 1.828125 -1.015625 2.179688 -1.097656 2.390625 -1.265625 C 2.609375 -1.441406 2.738281 -1.644531 2.78125 -1.875 C 2.820312 -2.113281 2.84375 -2.484375 2.84375 -2.984375 L 2.84375 -17.125 C 2.84375 -17.625 2.828125 -17.988281 2.796875 -18.21875 C 2.765625 -18.445312 2.640625 -18.648438 2.421875 -18.828125 C 2.210938 -19.003906 1.859375 -19.09375 1.359375 -19.09375 C 1.128906 -19.09375 0.957031 -19.125 0.84375 -19.1875 C 0.726562 -19.257812 0.671875 -19.421875 0.671875 -19.671875 C 0.671875 -19.785156 0.707031 -19.894531 0.78125 -20 C 0.851562 -20.101562 0.96875 -20.164062 1.125 -20.1875 C 2.34375 -20.363281 3.390625 -20.613281 4.265625 -20.9375 C 4.523438 -21.039062 4.742188 -21.101562 4.921875 -21.125 L 5.015625 -21.125 C 5.316406 -21.125 5.46875 -20.9375 5.46875 -20.5625 L 5.46875 -2.984375 C 5.46875 -2.484375 5.488281 -2.113281 5.53125 -1.875 C 5.570312 -1.644531 5.695312 -1.441406 5.90625 -1.265625 C 6.125 -1.097656 6.484375 -1.015625 6.984375 -1.015625 L 7.15625 -1.015625 C 7.3125 -1.015625 7.425781 -0.984375 7.5 -0.921875 C 7.582031 -0.867188 7.628906 -0.726562 7.640625 -0.5 C 7.640625 -0.34375 7.601562 -0.203125 7.53125 -0.078125 C 7.457031 0.0351562 7.34375 0.09375 7.1875 0.09375 C 6.0625 0.03125 5.046875 0 4.140625 0 C 3.273438 0 2.269531 0.03125 1.125 0.09375 Z M 1.125 0.09375 "/></g></g></g><g fill="#ffffff" fill-opacity="1"><g transform="translate(233.244301, 102.671495)"><g><path d="M 13.953125 -9.125 C 14.160156 -9.207031 14.394531 -9.273438 14.65625 -9.328125 C 14.925781 -9.378906 15.285156 -9.40625 15.734375 -9.40625 C 16.179688 -9.40625 16.644531 -9.28125 17.125 -9.03125 C 19.164062 -10.03125 20.554688 -11.484375 21.296875 -13.390625 C 21.566406 -14.054688 21.703125 -14.734375 21.703125 -15.421875 C 21.703125 -16.117188 21.515625 -16.710938 21.140625 -17.203125 C 20.929688 -17.078125 20.722656 -16.945312 20.515625 -16.8125 L 19.875 -16.34375 C 18.707031 -15.46875 17.71875 -14.597656 16.90625 -13.734375 C 15.539062 -12.285156 14.09375 -10.53125 12.5625 -8.46875 C 11.039062 -6.414062 9.484375 -4.707031 7.890625 -3.34375 C 6.304688 -1.988281 4.796875 -1.019531 3.359375 -0.4375 C 2.578125 -0.125 1.59375 0.03125 0.40625 0.03125 C -0.375 0.03125 -1.046875 -0.15625 -1.609375 -0.53125 C -2.171875 -0.914062 -2.453125 -1.375 -2.453125 -1.90625 C -2.453125 -2.476562 -2.171875 -2.835938 -1.609375 -2.984375 C -1.472656 -3.023438 -1.332031 -3.046875 -1.1875 -3.046875 C -1.039062 -3.046875 -0.894531 -3 -0.75 -2.90625 C -0.601562 -2.8125 -0.53125 -2.660156 -0.53125 -2.453125 C -0.53125 -2.253906 -0.601562 -2.085938 -0.75 -1.953125 C -0.894531 -1.828125 -1.09375 -1.765625 -1.34375 -1.765625 C -1.601562 -1.765625 -1.796875 -1.8125 -1.921875 -1.90625 L -1.921875 -1.8125 C -1.921875 -1.375 -1.703125 -1.015625 -1.265625 -0.734375 C -0.835938 -0.460938 -0.34375 -0.328125 0.21875 -0.328125 C 0.789062 -0.328125 1.253906 -0.367188 1.609375 -0.453125 C 1.960938 -0.535156 2.347656 -0.695312 2.765625 -0.9375 C 3.191406 -1.1875 3.664062 -1.53125 4.1875 -1.96875 C 4.71875 -2.40625 5.34375 -2.976562 6.0625 -3.6875 L 8.546875 -6.296875 L 11.875 -9.9375 C 15.03125 -13.507812 18.019531 -16.046875 20.84375 -17.546875 C 19.8125 -18.578125 18.109375 -19.09375 15.734375 -19.09375 C 12.953125 -19.09375 10.210938 -18.070312 7.515625 -16.03125 C 6.210938 -15.050781 5.132812 -14.007812 4.28125 -12.90625 C 3.414062 -11.757812 2.984375 -10.769531 2.984375 -9.9375 C 2.984375 -9.175781 3.363281 -8.6875 4.125 -8.46875 C 4.332031 -8.40625 4.628906 -8.375 5.015625 -8.375 C 5.410156 -8.375 5.90625 -8.476562 6.5 -8.6875 C 7.09375 -8.894531 7.691406 -9.1875 8.296875 -9.5625 C 8.898438 -9.9375 9.488281 -10.382812 10.0625 -10.90625 C 10.644531 -11.4375 11.171875 -12.019531 11.640625 -12.65625 C 12.671875 -14.03125 13.289062 -15.46875 13.5 -16.96875 C 13.550781 -17.25 13.617188 -17.390625 13.703125 -17.390625 C 13.785156 -17.390625 13.828125 -17.296875 13.828125 -17.109375 C 13.828125 -15.453125 13.351562 -13.894531 12.40625 -12.4375 C 11.539062 -11.125 10.382812 -10.066406 8.9375 -9.265625 C 7.53125 -8.472656 6.117188 -8.078125 4.703125 -8.078125 C 3.765625 -8.078125 3.125 -8.425781 2.78125 -9.125 C 2.644531 -9.363281 2.578125 -9.742188 2.578125 -10.265625 C 2.578125 -10.796875 2.753906 -11.4375 3.109375 -12.1875 C 3.460938 -12.9375 3.945312 -13.660156 4.5625 -14.359375 C 5.175781 -15.054688 5.90625 -15.707031 6.75 -16.3125 C 7.59375 -16.925781 8.503906 -17.460938 9.484375 -17.921875 C 11.585938 -18.898438 13.785156 -19.390625 16.078125 -19.390625 C 18.367188 -19.390625 20.171875 -18.882812 21.484375 -17.875 C 22.835938 -18.53125 23.960938 -18.859375 24.859375 -18.859375 C 25.148438 -18.859375 25.296875 -18.8125 25.296875 -18.71875 C 25.296875 -18.675781 25.210938 -18.640625 25.046875 -18.609375 C 24.890625 -18.585938 24.660156 -18.539062 24.359375 -18.46875 C 23.472656 -18.28125 22.632812 -17.984375 21.84375 -17.578125 C 22.6875 -16.765625 23.109375 -15.765625 23.109375 -14.578125 C 23.109375 -13.429688 22.566406 -12.28125 21.484375 -11.125 C 20.492188 -10.050781 19.257812 -9.21875 17.78125 -8.625 C 18.5 -7.976562 18.859375 -7.070312 18.859375 -5.90625 C 18.859375 -4.914062 18.484375 -3.953125 17.734375 -3.015625 C 16.617188 -1.617188 15.085938 -0.679688 13.140625 -0.203125 C 12.515625 -0.046875 11.929688 0.03125 11.390625 0.03125 C 10.847656 0.03125 10.429688 -0.015625 10.140625 -0.109375 C 9.859375 -0.203125 9.632812 -0.320312 9.46875 -0.46875 C 9.15625 -0.726562 9 -1.035156 9 -1.390625 C 9 -1.742188 9.09375 -2.101562 9.28125 -2.46875 C 9.46875 -2.832031 9.722656 -3.191406 10.046875 -3.546875 C 10.378906 -3.910156 10.769531 -4.257812 11.21875 -4.59375 C 11.664062 -4.925781 12.144531 -5.21875 12.65625 -5.46875 C 13.800781 -6.03125 14.90625 -6.3125 15.96875 -6.3125 C 16.15625 -6.3125 16.25 -6.253906 16.25 -6.140625 C 16.25 -6.023438 16.0625 -5.96875 15.6875 -5.96875 C 15.320312 -5.96875 14.890625 -5.898438 14.390625 -5.765625 C 13.890625 -5.628906 13.398438 -5.441406 12.921875 -5.203125 C 12.453125 -4.972656 12.003906 -4.707031 11.578125 -4.40625 C 11.160156 -4.101562 10.789062 -3.785156 10.46875 -3.453125 C 9.78125 -2.734375 9.4375 -2.066406 9.4375 -1.453125 C 9.4375 -0.710938 10.050781 -0.34375 11.28125 -0.34375 C 12.144531 -0.34375 13.050781 -0.664062 14 -1.3125 C 15.53125 -2.34375 16.570312 -3.773438 17.125 -5.609375 C 17.300781 -6.210938 17.390625 -6.769531 17.390625 -7.28125 C 17.390625 -7.800781 17.328125 -8.171875 17.203125 -8.390625 C 16.273438 -8.078125 15.492188 -7.921875 14.859375 -7.921875 C 14.222656 -7.921875 13.800781 -7.988281 13.59375 -8.125 C 13.382812 -8.257812 13.28125 -8.390625 13.28125 -8.515625 C 13.28125 -8.640625 13.335938 -8.753906 13.453125 -8.859375 C 13.578125 -8.960938 13.742188 -9.050781 13.953125 -9.125 Z M 16.71875 -8.84375 C 16.4375 -9.007812 16.109375 -9.09375 15.734375 -9.09375 C 15.359375 -9.09375 15.078125 -9.078125 14.890625 -9.046875 C 14.710938 -9.023438 14.550781 -8.988281 14.40625 -8.9375 C 14.113281 -8.851562 13.96875 -8.765625 13.96875 -8.671875 C 13.96875 -8.453125 14.226562 -8.34375 14.75 -8.34375 C 15.269531 -8.34375 15.925781 -8.507812 16.71875 -8.84375 Z M 16.71875 -8.84375 "/></g></g><g transform="translate(254.780138, 102.671495)"><g><path d="M 5.375 0.03125 C 4.476562 0.03125 4.03125 -0.25 4.03125 -0.8125 C 4.03125 -1.269531 4.289062 -1.84375 4.8125 -2.53125 L 5.65625 -3.609375 L 5.515625 -3.65625 C 4.015625 -1.800781 2.59375 -0.632812 1.25 -0.15625 C 0.882812 -0.03125 0.566406 0.03125 0.296875 0.03125 C -0.804688 0.03125 -1.359375 -0.554688 -1.359375 -1.734375 C -1.359375 -3.117188 -0.804688 -4.441406 0.296875 -5.703125 C 1.929688 -7.597656 3.570312 -8.722656 5.21875 -9.078125 C 5.71875 -9.171875 6.140625 -9.21875 6.484375 -9.21875 C 6.835938 -9.21875 7.113281 -9.191406 7.3125 -9.140625 C 7.519531 -9.097656 7.695312 -9.03125 7.84375 -8.9375 C 8.164062 -8.726562 8.328125 -8.472656 8.328125 -8.171875 C 8.328125 -7.878906 8.273438 -7.597656 8.171875 -7.328125 L 9.5 -8.953125 C 9.738281 -8.878906 9.960938 -8.84375 10.171875 -8.84375 C 10.703125 -8.84375 11.082031 -8.863281 11.3125 -8.90625 L 6.765625 -3.4375 C 5.691406 -2.175781 5.15625 -1.289062 5.15625 -0.78125 C 5.15625 -0.488281 5.328125 -0.34375 5.671875 -0.34375 C 6.015625 -0.34375 6.40625 -0.445312 6.84375 -0.65625 C 7.289062 -0.863281 7.734375 -1.128906 8.171875 -1.453125 C 8.609375 -1.773438 9.035156 -2.132812 9.453125 -2.53125 C 9.878906 -2.925781 10.269531 -3.3125 10.625 -3.6875 C 10.976562 -4.0625 11.285156 -4.410156 11.546875 -4.734375 L 12.203125 -5.46875 L 12.484375 -5.234375 L 11.796875 -4.453125 C 9.210938 -1.460938 7.070312 0.03125 5.375 0.03125 Z M 1.640625 -4.828125 C 0.378906 -3.285156 -0.25 -2.023438 -0.25 -1.046875 C -0.25 -0.597656 -0.0507812 -0.375 0.34375 -0.375 C 1.65625 -0.375 3.546875 -1.820312 6.015625 -4.71875 L 7.15625 -6.09375 C 7.6875 -6.90625 7.953125 -7.492188 7.953125 -7.859375 C 7.953125 -8.492188 7.640625 -8.8125 7.015625 -8.8125 C 6.160156 -8.8125 4.9375 -8.082031 3.34375 -6.625 C 2.789062 -6.125 2.222656 -5.523438 1.640625 -4.828125 Z M 1.640625 -4.828125 "/></g></g><g transform="translate(266.888154, 102.671495)"><g><path d="M 6.953125 -8.09375 C 6.929688 -8.613281 6.601562 -8.875 5.96875 -8.875 C 4.664062 -8.875 2.984375 -7.519531 0.921875 -4.8125 C 0.0664062 -3.675781 -0.359375 -2.648438 -0.359375 -1.734375 C -0.359375 -1.335938 -0.253906 -1.035156 -0.046875 -0.828125 C 0.335938 -0.484375 0.820312 -0.3125 1.40625 -0.3125 C 2 -0.3125 2.625 -0.429688 3.28125 -0.671875 C 3.9375 -0.910156 4.546875 -1.210938 5.109375 -1.578125 C 5.679688 -1.953125 6.195312 -2.359375 6.65625 -2.796875 C 7.125 -3.234375 7.53125 -3.640625 7.875 -4.015625 C 8.21875 -4.398438 8.488281 -4.726562 8.6875 -5 C 8.882812 -5.269531 9 -5.425781 9.03125 -5.46875 L 9.328125 -5.234375 L 8.96875 -4.75 C 7.28125 -2.53125 5.394531 -1.046875 3.3125 -0.296875 C 2.613281 -0.046875 1.953125 0.078125 1.328125 0.078125 C 0.710938 0.078125 0.234375 0.015625 -0.109375 -0.109375 C -0.460938 -0.234375 -0.757812 -0.40625 -1 -0.625 C -1.445312 -1.0625 -1.671875 -1.609375 -1.671875 -2.265625 C -1.671875 -3.546875 -1.113281 -4.851562 0 -6.1875 C 0.875 -7.226562 1.90625 -8.023438 3.09375 -8.578125 C 4.0625 -9.023438 5.003906 -9.238281 5.921875 -9.21875 C 6.734375 -9.195312 7.242188 -8.925781 7.453125 -8.40625 C 7.671875 -7.875 7.554688 -7.390625 7.109375 -6.953125 C 6.816406 -6.640625 6.53125 -6.484375 6.25 -6.484375 C 5.601562 -6.484375 5.269531 -6.75 5.25 -7.28125 C 5.238281 -7.53125 5.332031 -7.738281 5.53125 -7.90625 C 5.738281 -8.070312 5.941406 -8.164062 6.140625 -8.1875 C 6.429688 -8.207031 6.703125 -8.160156 6.953125 -8.046875 Z M 6.953125 -8.09375 "/></g></g><g transform="translate(275.844584, 102.671495)"><g><path d="M 11.296875 -21.484375 C 11.890625 -21.378906 12.507812 -21.378906 13.15625 -21.484375 L 2.078125 -6.0625 C -0.0234375 -3.007812 -1.34375 -1.070312 -1.875 -0.25 C -2.113281 -0.300781 -2.316406 -0.328125 -2.484375 -0.328125 C -2.648438 -0.328125 -2.773438 -0.320312 -2.859375 -0.3125 C -2.953125 -0.300781 -3.046875 -0.285156 -3.140625 -0.265625 C -3.234375 -0.253906 -3.320312 -0.238281 -3.40625 -0.21875 C -3.488281 -0.207031 -3.554688 -0.195312 -3.609375 -0.1875 Z M 4.34375 -0.765625 C 4.34375 -0.484375 4.5625 -0.34375 5 -0.34375 C 5.445312 -0.34375 5.921875 -0.46875 6.421875 -0.71875 C 6.921875 -0.96875 7.414062 -1.273438 7.90625 -1.640625 C 8.394531 -2.003906 8.863281 -2.40625 9.3125 -2.84375 C 9.757812 -3.28125 10.15625 -3.6875 10.5 -4.0625 C 11.03125 -4.632812 11.429688 -5.109375 11.703125 -5.484375 L 11.96875 -5.234375 C 11.9375 -5.203125 11.804688 -5.050781 11.578125 -4.78125 C 11.347656 -4.507812 11.050781 -4.175781 10.6875 -3.78125 C 10.320312 -3.394531 9.898438 -2.976562 9.421875 -2.53125 C 8.953125 -2.09375 8.457031 -1.679688 7.9375 -1.296875 C 6.75 -0.410156 5.710938 0.03125 4.828125 0.03125 C 3.929688 0.03125 3.484375 -0.445312 3.484375 -1.40625 C 3.484375 -2.207031 4.03125 -3.144531 5.125 -4.21875 C 5.570312 -4.675781 5.796875 -4.984375 5.796875 -5.140625 C 5.796875 -5.503906 5.53125 -5.773438 5 -5.953125 C 4.46875 -5.648438 4 -5.5 3.59375 -5.5 C 2.914062 -5.5 2.578125 -5.640625 2.578125 -5.921875 C 2.578125 -6.085938 2.707031 -6.234375 2.96875 -6.359375 C 3.226562 -6.484375 3.539062 -6.546875 3.90625 -6.546875 C 4.28125 -6.546875 4.640625 -6.492188 4.984375 -6.390625 C 5.265625 -6.535156 5.488281 -6.695312 5.65625 -6.875 C 6.050781 -7.28125 6.414062 -7.6875 6.75 -8.09375 C 7.082031 -8.5 7.398438 -8.835938 7.703125 -9.109375 C 8.390625 -9.710938 9.085938 -10.015625 9.796875 -10.015625 C 10.222656 -10.015625 10.566406 -9.898438 10.828125 -9.671875 C 11.097656 -9.453125 11.226562 -9.1875 11.21875 -8.875 C 11.207031 -8.5625 11.109375 -8.332031 10.921875 -8.1875 C 10.734375 -8.039062 10.523438 -7.96875 10.296875 -7.96875 C 10.078125 -7.96875 9.882812 -8.039062 9.71875 -8.1875 C 9.550781 -8.34375 9.472656 -8.519531 9.484375 -8.71875 C 9.503906 -9.101562 9.6875 -9.347656 10.03125 -9.453125 C 9.894531 -9.554688 9.722656 -9.609375 9.515625 -9.609375 C 9.304688 -9.609375 9.097656 -9.570312 8.890625 -9.5 C 8.691406 -9.425781 8.472656 -9.296875 8.234375 -9.109375 C 7.765625 -8.734375 7.175781 -8.09375 6.46875 -7.1875 C 6.132812 -6.8125 5.785156 -6.488281 5.421875 -6.21875 C 6.273438 -5.820312 6.703125 -5.238281 6.703125 -4.46875 C 6.703125 -3.84375 6.414062 -3.1875 5.84375 -2.5 C 5.601562 -2.21875 5.34375 -1.945312 5.0625 -1.6875 C 4.582031 -1.25 4.34375 -0.941406 4.34375 -0.765625 Z M 4.34375 -0.765625 "/></g></g><g transform="translate(287.440804, 102.671495)"><g><path d="M 5.203125 -1.15625 C 4.628906 -0.800781 4.015625 -0.503906 3.359375 -0.265625 C 2.703125 -0.0351562 2.078125 0.078125 1.484375 0.078125 C 0.890625 0.078125 0.4375 0.0195312 0.125 -0.09375 C -0.1875 -0.21875 -0.441406 -0.390625 -0.640625 -0.609375 C -1.484375 -1.523438 -1.476562 -2.875 -0.625 -4.65625 C -0.25 -5.445312 0.304688 -6.164062 1.046875 -6.8125 C 1.796875 -7.46875 2.453125 -7.957031 3.015625 -8.28125 C 4.109375 -8.90625 5.132812 -9.21875 6.09375 -9.21875 C 7.050781 -9.21875 7.550781 -8.921875 7.59375 -8.328125 C 7.65625 -7.367188 6.488281 -6.328125 4.09375 -5.203125 C 3.21875 -4.785156 2.109375 -4.359375 0.765625 -3.921875 C 0.234375 -3.054688 -0.03125 -2.351562 -0.03125 -1.8125 C -0.03125 -1.269531 0.109375 -0.882812 0.390625 -0.65625 C 0.679688 -0.425781 1.097656 -0.3125 1.640625 -0.3125 C 2.179688 -0.3125 2.765625 -0.425781 3.390625 -0.65625 C 4.023438 -0.894531 4.617188 -1.191406 5.171875 -1.546875 C 5.722656 -1.910156 6.222656 -2.300781 6.671875 -2.71875 C 7.128906 -3.144531 7.53125 -3.550781 7.875 -3.9375 C 8.21875 -4.320312 8.5 -4.65625 8.71875 -4.9375 C 8.9375 -5.21875 9.085938 -5.394531 9.171875 -5.46875 L 9.453125 -5.234375 C 9.335938 -5.140625 9.160156 -4.9375 8.921875 -4.625 C 8.679688 -4.320312 8.378906 -3.972656 8.015625 -3.578125 C 7.648438 -3.191406 7.234375 -2.78125 6.765625 -2.34375 C 6.296875 -1.914062 5.773438 -1.519531 5.203125 -1.15625 Z M 1.078125 -4.390625 C 3.785156 -5.335938 5.53125 -6.285156 6.3125 -7.234375 C 6.570312 -7.546875 6.703125 -7.847656 6.703125 -8.140625 C 6.703125 -8.648438 6.46875 -8.90625 6 -8.90625 C 5.175781 -8.90625 4.144531 -8.179688 2.90625 -6.734375 C 2.039062 -5.722656 1.429688 -4.941406 1.078125 -4.390625 Z M 1.078125 -4.390625 "/></g></g><g transform="translate(296.518449, 102.671495)"><g><path d="M 0.484375 -0.25 C 0.242188 -0.300781 -0.0234375 -0.328125 -0.328125 -0.328125 C -0.796875 -0.328125 -1.210938 -0.28125 -1.578125 -0.1875 L 3.09375 -6.875 C 3.675781 -7.6875 3.976562 -8.171875 4 -8.328125 C 4.03125 -8.617188 3.9375 -8.765625 3.71875 -8.765625 C 3.382812 -8.765625 2.554688 -7.941406 1.234375 -6.296875 L 0.375 -5.234375 C 0.300781 -5.203125 0.226562 -5.222656 0.15625 -5.296875 C 0.0820312 -5.367188 0.0625 -5.425781 0.09375 -5.46875 C 0.351562 -5.75 0.644531 -6.097656 0.96875 -6.515625 C 1.300781 -6.941406 1.644531 -7.351562 2 -7.75 C 2.882812 -8.726562 3.617188 -9.21875 4.203125 -9.21875 C 5.191406 -9.21875 5.503906 -8.710938 5.140625 -7.703125 C 5.066406 -7.484375 4.910156 -7.207031 4.671875 -6.875 L 1.84375 -2.9375 L 1.90625 -2.78125 C 4.175781 -5.257812 5.785156 -6.898438 6.734375 -7.703125 C 7.640625 -8.453125 8.3125 -8.890625 8.75 -9.015625 C 9.195312 -9.148438 9.5625 -9.21875 9.84375 -9.21875 C 10.132812 -9.21875 10.378906 -9.175781 10.578125 -9.09375 C 10.773438 -9.019531 10.9375 -8.921875 11.0625 -8.796875 C 11.300781 -8.554688 11.414062 -8.269531 11.40625 -7.9375 C 11.40625 -7.613281 11.34375 -7.28125 11.21875 -6.9375 C 11.101562 -6.601562 10.898438 -6.203125 10.609375 -5.734375 C 10.003906 -4.773438 8.988281 -3.523438 7.5625 -1.984375 C 6.96875 -1.359375 6.65625 -0.992188 6.625 -0.890625 C 6.601562 -0.785156 6.59375 -0.707031 6.59375 -0.65625 C 6.59375 -0.445312 6.867188 -0.34375 7.421875 -0.34375 C 7.972656 -0.34375 8.488281 -0.457031 8.96875 -0.6875 C 9.457031 -0.914062 9.929688 -1.207031 10.390625 -1.5625 C 10.847656 -1.914062 11.285156 -2.300781 11.703125 -2.71875 C 12.117188 -3.132812 12.492188 -3.53125 12.828125 -3.90625 C 13.160156 -4.289062 13.4375 -4.625 13.65625 -4.90625 C 13.882812 -5.1875 14.039062 -5.375 14.125 -5.46875 L 14.40625 -5.234375 C 14.320312 -5.140625 14.160156 -4.941406 13.921875 -4.640625 C 13.691406 -4.347656 13.398438 -4.007812 13.046875 -3.625 C 12.703125 -3.238281 12.3125 -2.828125 11.875 -2.390625 C 11.445312 -1.960938 10.988281 -1.570312 10.5 -1.21875 C 9.375 -0.382812 8.351562 0.03125 7.4375 0.03125 C 6.625 0.03125 6.0625 -0.171875 5.75 -0.578125 C 5.65625 -0.703125 5.609375 -0.847656 5.609375 -1.015625 C 5.609375 -1.191406 5.628906 -1.390625 5.671875 -1.609375 C 5.722656 -1.828125 5.84375 -2.109375 6.03125 -2.453125 C 6.457031 -3.179688 7.054688 -3.976562 7.828125 -4.84375 C 8.609375 -5.71875 9.117188 -6.304688 9.359375 -6.609375 C 9.597656 -6.910156 9.789062 -7.175781 9.9375 -7.40625 C 10.207031 -7.832031 10.34375 -8.164062 10.34375 -8.40625 C 10.34375 -8.726562 10.128906 -8.890625 9.703125 -8.890625 C 8.804688 -8.890625 7.335938 -7.882812 5.296875 -5.875 C 4.265625 -4.863281 3.078125 -3.539062 1.734375 -1.90625 Z M 0.484375 -0.25 "/></g></g><g transform="translate(310.552434, 102.671495)"><g><path d="M 5.140625 -3.65625 C 2.941406 -1.195312 1.191406 0.03125 -0.109375 0.03125 C -1.242188 0.03125 -1.8125 -0.554688 -1.8125 -1.734375 C -1.8125 -3.097656 -1.253906 -4.421875 -0.140625 -5.703125 C 1.878906 -8.046875 4.015625 -9.21875 6.265625 -9.21875 C 6.929688 -9.21875 7.425781 -9.015625 7.75 -8.609375 C 7.851562 -8.472656 7.90625 -8.34375 7.90625 -8.21875 C 7.90625 -8.101562 7.898438 -8.03125 7.890625 -8 C 7.890625 -7.96875 7.890625 -7.929688 7.890625 -7.890625 L 14.5625 -17.484375 L 17.390625 -21.484375 C 17.722656 -21.335938 18.035156 -21.265625 18.328125 -21.265625 C 18.617188 -21.265625 18.878906 -21.273438 19.109375 -21.296875 L 6.3125 -3.359375 C 5.789062 -2.660156 5.394531 -2.109375 5.125 -1.703125 C 4.863281 -1.296875 4.734375 -0.972656 4.734375 -0.734375 C 4.734375 -0.492188 4.847656 -0.375 5.078125 -0.375 C 5.953125 -0.375 6.941406 -0.78125 8.046875 -1.59375 C 9.054688 -2.320312 10.160156 -3.425781 11.359375 -4.90625 C 11.585938 -5.1875 11.75 -5.375 11.84375 -5.46875 L 12.125 -5.234375 C 12.03125 -5.140625 11.859375 -4.941406 11.609375 -4.640625 C 11.367188 -4.347656 11.066406 -4.007812 10.703125 -3.625 C 10.335938 -3.238281 9.925781 -2.828125 9.46875 -2.390625 C 9.019531 -1.960938 8.539062 -1.570312 8.03125 -1.21875 C 6.863281 -0.382812 5.835938 0.03125 4.953125 0.03125 C 4.078125 0.03125 3.640625 -0.253906 3.640625 -0.828125 C 3.648438 -1.410156 4.1875 -2.335938 5.25 -3.609375 Z M 1.234375 -4.796875 C -0.046875 -3.234375 -0.6875 -1.984375 -0.6875 -1.046875 C -0.6875 -0.597656 -0.460938 -0.375 -0.015625 -0.375 C 0.785156 -0.375 1.898438 -1.023438 3.328125 -2.328125 L 4.4375 -3.390625 C 5.070312 -4.023438 5.59375 -4.628906 6 -5.203125 L 7.1875 -6.90625 C 7.394531 -7.320312 7.5 -7.675781 7.5 -7.96875 C 7.5 -8.269531 7.390625 -8.484375 7.171875 -8.609375 C 6.960938 -8.742188 6.738281 -8.8125 6.5 -8.8125 C 6.269531 -8.8125 5.976562 -8.726562 5.625 -8.5625 C 5.269531 -8.40625 4.867188 -8.164062 4.421875 -7.84375 C 3.441406 -7.132812 2.378906 -6.117188 1.234375 -4.796875 Z M 1.234375 -4.796875 "/></g></g><g transform="translate(322.296805, 102.671495)"><g/></g><g transform="translate(331.765031, 102.671495)"><g><path d="M 6.78125 -0.65625 C 5.320312 -0.164062 3.71875 0.078125 1.96875 0.078125 C 0.757812 0.078125 -0.00390625 -0.128906 -0.328125 -0.546875 C -0.410156 -0.671875 -0.453125 -0.796875 -0.453125 -0.921875 C -0.453125 -1.054688 -0.390625 -1.1875 -0.265625 -1.3125 C -0.148438 -1.445312 0.0195312 -1.578125 0.25 -1.703125 C 0.78125 -1.953125 1.316406 -2.078125 1.859375 -2.078125 C 2.398438 -2.078125 2.789062 -2.0625 3.03125 -2.03125 C 3.269531 -2.007812 3.535156 -1.96875 3.828125 -1.90625 C 4.328125 -1.800781 4.828125 -1.675781 5.328125 -1.53125 C 5.835938 -1.382812 6.101562 -1.3125 6.125 -1.3125 C 6.15625 -1.3125 6.1875 -1.300781 6.21875 -1.28125 C 7.132812 -1.769531 8.039062 -2.445312 8.9375 -3.3125 C 9.832031 -4.1875 10.632812 -5.015625 11.34375 -5.796875 L 13.671875 -8.53125 L 15.9375 -11.25 L 17.140625 -12.59375 C 17.566406 -13.039062 18.050781 -13.519531 18.59375 -14.03125 C 19.132812 -14.539062 19.773438 -15.046875 20.515625 -15.546875 C 19.304688 -17.390625 17.195312 -18.3125 14.1875 -18.3125 C 12.507812 -18.3125 10.832031 -17.84375 9.15625 -16.90625 C 7.632812 -16.0625 6.378906 -14.988281 5.390625 -13.6875 C 4.410156 -12.414062 3.921875 -11.25 3.921875 -10.1875 C 3.921875 -9.539062 4.140625 -9.019531 4.578125 -8.625 C 5.023438 -8.238281 5.566406 -8.046875 6.203125 -8.046875 C 6.835938 -8.046875 7.453125 -8.148438 8.046875 -8.359375 C 8.648438 -8.578125 9.265625 -8.867188 9.890625 -9.234375 C 10.515625 -9.609375 11.128906 -10.046875 11.734375 -10.546875 C 12.347656 -11.054688 12.898438 -11.597656 13.390625 -12.171875 C 14.453125 -13.441406 15.023438 -14.648438 15.109375 -15.796875 C 15.140625 -16.003906 15.1875 -16.109375 15.25 -16.109375 C 15.363281 -16.109375 15.421875 -16.015625 15.421875 -15.828125 C 15.421875 -14.535156 14.984375 -13.253906 14.109375 -11.984375 C 12.785156 -10.015625 10.984375 -8.6875 8.703125 -8 C 7.960938 -7.769531 7.296875 -7.65625 6.703125 -7.65625 C 6.109375 -7.65625 5.613281 -7.722656 5.21875 -7.859375 C 4.820312 -7.992188 4.472656 -8.1875 4.171875 -8.4375 C 3.484375 -9 3.140625 -9.648438 3.140625 -10.390625 C 3.140625 -11.128906 3.269531 -11.832031 3.53125 -12.5 C 3.789062 -13.164062 4.15625 -13.796875 4.625 -14.390625 C 5.101562 -14.992188 5.675781 -15.550781 6.34375 -16.0625 C 7.019531 -16.582031 7.757812 -17.035156 8.5625 -17.421875 C 10.289062 -18.234375 12.140625 -18.640625 14.109375 -18.640625 C 17.234375 -18.640625 19.53125 -17.710938 21 -15.859375 C 23.050781 -17.148438 24.890625 -17.832031 26.515625 -17.90625 C 26.648438 -17.90625 26.71875 -17.867188 26.71875 -17.796875 C 26.71875 -17.722656 26.691406 -17.675781 26.640625 -17.65625 C 26.597656 -17.632812 26.472656 -17.609375 26.265625 -17.578125 C 24.691406 -17.390625 23.09375 -16.59375 21.46875 -15.1875 C 22.132812 -14.082031 22.46875 -12.882812 22.46875 -11.59375 C 22.46875 -10.300781 22.316406 -9.160156 22.015625 -8.171875 C 21.722656 -7.179688 21.316406 -6.265625 20.796875 -5.421875 C 20.273438 -4.585938 19.648438 -3.832031 18.921875 -3.15625 C 18.203125 -2.488281 17.414062 -1.921875 16.5625 -1.453125 C 14.769531 -0.460938 12.890625 0.03125 10.921875 0.03125 C 9.703125 0.03125 8.320312 -0.195312 6.78125 -0.65625 Z M 7.421875 -0.90625 C 8.554688 -0.550781 9.65625 -0.375 10.71875 -0.375 C 11.78125 -0.375 12.742188 -0.5 13.609375 -0.75 C 14.472656 -1 15.296875 -1.347656 16.078125 -1.796875 C 16.867188 -2.253906 17.597656 -2.804688 18.265625 -3.453125 C 18.941406 -4.109375 19.53125 -4.832031 20.03125 -5.625 C 21.070312 -7.34375 21.59375 -9.21875 21.59375 -11.25 C 21.59375 -12.613281 21.375 -13.773438 20.9375 -14.734375 C 19.9375 -13.796875 18.992188 -12.695312 18.109375 -11.4375 L 15.640625 -7.96875 C 13.015625 -4.375 10.273438 -2.019531 7.421875 -0.90625 Z M 5.609375 -0.984375 C 4.285156 -1.328125 3.195312 -1.5 2.34375 -1.5 C 1.488281 -1.5 0.867188 -1.4375 0.484375 -1.3125 C 0.109375 -1.195312 -0.078125 -1.066406 -0.078125 -0.921875 C -0.078125 -0.535156 0.675781 -0.34375 2.1875 -0.34375 C 3.519531 -0.34375 4.660156 -0.554688 5.609375 -0.984375 Z M 5.609375 -0.984375 "/></g></g><g transform="translate(355.105623, 102.671495)"><g><path d="M 5.203125 -1.15625 C 4.628906 -0.800781 4.015625 -0.503906 3.359375 -0.265625 C 2.703125 -0.0351562 2.078125 0.078125 1.484375 0.078125 C 0.890625 0.078125 0.4375 0.0195312 0.125 -0.09375 C -0.1875 -0.21875 -0.441406 -0.390625 -0.640625 -0.609375 C -1.484375 -1.523438 -1.476562 -2.875 -0.625 -4.65625 C -0.25 -5.445312 0.304688 -6.164062 1.046875 -6.8125 C 1.796875 -7.46875 2.453125 -7.957031 3.015625 -8.28125 C 4.109375 -8.90625 5.132812 -9.21875 6.09375 -9.21875 C 7.050781 -9.21875 7.550781 -8.921875 7.59375 -8.328125 C 7.65625 -7.367188 6.488281 -6.328125 4.09375 -5.203125 C 3.21875 -4.785156 2.109375 -4.359375 0.765625 -3.921875 C 0.234375 -3.054688 -0.03125 -2.351562 -0.03125 -1.8125 C -0.03125 -1.269531 0.109375 -0.882812 0.390625 -0.65625 C 0.679688 -0.425781 1.097656 -0.3125 1.640625 -0.3125 C 2.179688 -0.3125 2.765625 -0.425781 3.390625 -0.65625 C 4.023438 -0.894531 4.617188 -1.191406 5.171875 -1.546875 C 5.722656 -1.910156 6.222656 -2.300781 6.671875 -2.71875 C 7.128906 -3.144531 7.53125 -3.550781 7.875 -3.9375 C 8.21875 -4.320312 8.5 -4.65625 8.71875 -4.9375 C 8.9375 -5.21875 9.085938 -5.394531 9.171875 -5.46875 L 9.453125 -5.234375 C 9.335938 -5.140625 9.160156 -4.9375 8.921875 -4.625 C 8.679688 -4.320312 8.378906 -3.972656 8.015625 -3.578125 C 7.648438 -3.191406 7.234375 -2.78125 6.765625 -2.34375 C 6.296875 -1.914062 5.773438 -1.519531 5.203125 -1.15625 Z M 1.078125 -4.390625 C 3.785156 -5.335938 5.53125 -6.285156 6.3125 -7.234375 C 6.570312 -7.546875 6.703125 -7.847656 6.703125 -8.140625 C 6.703125 -8.648438 6.46875 -8.90625 6 -8.90625 C 5.175781 -8.90625 4.144531 -8.179688 2.90625 -6.734375 C 2.039062 -5.722656 1.429688 -4.941406 1.078125 -4.390625 Z M 1.078125 -4.390625 "/></g></g><g transform="translate(364.183268, 102.671495)"><g><path d="M 3.359375 -9.140625 C 3.785156 -9.085938 4.179688 -9.0625 4.546875 -9.0625 C 4.921875 -9.0625 5.226562 -9.078125 5.46875 -9.109375 C 4.664062 -8.390625 4.066406 -7.804688 3.671875 -7.359375 L 1.875 -5.359375 C 1.726562 -5.191406 1.539062 -4.992188 1.3125 -4.765625 L -0.21875 -3.15625 C -1.175781 -2.101562 -1.65625 -1.394531 -1.65625 -1.03125 C -1.65625 -0.675781 -1.585938 -0.46875 -1.453125 -0.40625 C -1.316406 -0.351562 -1.066406 -0.328125 -0.703125 -0.328125 C -0.335938 -0.328125 0.125 -0.429688 0.6875 -0.640625 C 1.25 -0.847656 1.820312 -1.125 2.40625 -1.46875 C 3.46875 -2.082031 4.414062 -2.757812 5.25 -3.5 C 6.09375 -4.25 6.660156 -4.8125 6.953125 -5.1875 C 7.253906 -5.5625 7.484375 -5.925781 7.640625 -6.28125 C 7.890625 -6.851562 8.015625 -7.566406 8.015625 -8.421875 C 8.015625 -8.753906 8.113281 -9.023438 8.3125 -9.234375 C 8.519531 -9.441406 8.773438 -9.546875 9.078125 -9.546875 C 9.578125 -9.546875 9.828125 -9.300781 9.828125 -8.8125 C 9.828125 -7.78125 8.9375 -6.398438 7.15625 -4.671875 L 6.78125 -4.34375 C 6.226562 -3.582031 6.085938 -3.050781 6.359375 -2.75 C 6.453125 -2.644531 6.632812 -2.59375 6.90625 -2.59375 C 7.1875 -2.59375 7.519531 -2.703125 7.90625 -2.921875 C 8.289062 -3.148438 8.664062 -3.421875 9.03125 -3.734375 C 9.40625 -4.046875 9.753906 -4.363281 10.078125 -4.6875 L 10.8125 -5.46875 L 11.09375 -5.234375 C 9.25 -3.253906 7.804688 -2.265625 6.765625 -2.265625 C 6.316406 -2.265625 6.035156 -2.394531 5.921875 -2.65625 C 5.816406 -2.914062 5.863281 -3.257812 6.0625 -3.6875 C 4.113281 -2.050781 2.300781 -0.929688 0.625 -0.328125 C 0 -0.0859375 -0.566406 0.03125 -1.078125 0.03125 C -1.585938 0.03125 -1.96875 -0.0664062 -2.21875 -0.265625 C -2.46875 -0.472656 -2.59375 -0.722656 -2.59375 -1.015625 C -2.59375 -1.304688 -2.5625 -1.570312 -2.5 -1.8125 C -2.4375 -2.050781 -2.3125 -2.335938 -2.125 -2.671875 C -1.78125 -3.273438 -1.238281 -4.039062 -0.5 -4.96875 C 0.238281 -5.894531 0.894531 -6.65625 1.46875 -7.25 Z M 3.359375 -9.140625 "/></g></g><g transform="translate(374.904047, 102.671495)"><g><path d="M 5.203125 -1.15625 C 4.628906 -0.800781 4.015625 -0.503906 3.359375 -0.265625 C 2.703125 -0.0351562 2.078125 0.078125 1.484375 0.078125 C 0.890625 0.078125 0.4375 0.0195312 0.125 -0.09375 C -0.1875 -0.21875 -0.441406 -0.390625 -0.640625 -0.609375 C -1.484375 -1.523438 -1.476562 -2.875 -0.625 -4.65625 C -0.25 -5.445312 0.304688 -6.164062 1.046875 -6.8125 C 1.796875 -7.46875 2.453125 -7.957031 3.015625 -8.28125 C 4.109375 -8.90625 5.132812 -9.21875 6.09375 -9.21875 C 7.050781 -9.21875 7.550781 -8.921875 7.59375 -8.328125 C 7.65625 -7.367188 6.488281 -6.328125 4.09375 -5.203125 C 3.21875 -4.785156 2.109375 -4.359375 0.765625 -3.921875 C 0.234375 -3.054688 -0.03125 -2.351562 -0.03125 -1.8125 C -0.03125 -1.269531 0.109375 -0.882812 0.390625 -0.65625 C 0.679688 -0.425781 1.097656 -0.3125 1.640625 -0.3125 C 2.179688 -0.3125 2.765625 -0.425781 3.390625 -0.65625 C 4.023438 -0.894531 4.617188 -1.191406 5.171875 -1.546875 C 5.722656 -1.910156 6.222656 -2.300781 6.671875 -2.71875 C 7.128906 -3.144531 7.53125 -3.550781 7.875 -3.9375 C 8.21875 -4.320312 8.5 -4.65625 8.71875 -4.9375 C 8.9375 -5.21875 9.085938 -5.394531 9.171875 -5.46875 L 9.453125 -5.234375 C 9.335938 -5.140625 9.160156 -4.9375 8.921875 -4.625 C 8.679688 -4.320312 8.378906 -3.972656 8.015625 -3.578125 C 7.648438 -3.191406 7.234375 -2.78125 6.765625 -2.34375 C 6.296875 -1.914062 5.773438 -1.519531 5.203125 -1.15625 Z M 1.078125 -4.390625 C 3.785156 -5.335938 5.53125 -6.285156 6.3125 -7.234375 C 6.570312 -7.546875 6.703125 -7.847656 6.703125 -8.140625 C 6.703125 -8.648438 6.46875 -8.90625 6 -8.90625 C 5.175781 -8.90625 4.144531 -8.179688 2.90625 -6.734375 C 2.039062 -5.722656 1.429688 -4.941406 1.078125 -4.390625 Z M 1.078125 -4.390625 "/></g></g><g transform="translate(383.981692, 102.671495)"><g><path d="M -1.3125 -0.796875 C -1.3125 -0.492188 -1.09375 -0.34375 -0.65625 -0.34375 C -0.226562 -0.34375 0.226562 -0.457031 0.71875 -0.6875 C 1.207031 -0.914062 1.691406 -1.207031 2.171875 -1.5625 C 2.648438 -1.914062 3.113281 -2.300781 3.5625 -2.71875 C 4.007812 -3.132812 4.421875 -3.53125 4.796875 -3.90625 L 5.71875 -4.90625 C 5.96875 -5.1875 6.140625 -5.375 6.234375 -5.46875 L 6.5 -5.234375 C 6.40625 -5.140625 6.222656 -4.941406 5.953125 -4.640625 C 5.691406 -4.347656 5.367188 -4.007812 4.984375 -3.625 C 4.609375 -3.238281 4.179688 -2.828125 3.703125 -2.390625 C 3.234375 -1.960938 2.742188 -1.570312 2.234375 -1.21875 C 1.035156 -0.382812 -0.0078125 0.03125 -0.90625 0.03125 C -1.28125 0.03125 -1.585938 -0.0703125 -1.828125 -0.28125 C -2.078125 -0.488281 -2.203125 -0.710938 -2.203125 -0.953125 C -2.203125 -1.191406 -2.191406 -1.378906 -2.171875 -1.515625 C -2.148438 -1.660156 -2.101562 -1.828125 -2.03125 -2.015625 C -1.957031 -2.203125 -1.851562 -2.414062 -1.71875 -2.65625 C -1.582031 -2.90625 -1.40625 -3.207031 -1.1875 -3.5625 L 0.875 -6.59375 L 11.28125 -21.484375 C 11.925781 -21.390625 12.550781 -21.390625 13.15625 -21.484375 C 4.59375 -9.578125 0.160156 -3.394531 -0.140625 -2.9375 C -0.453125 -2.488281 -0.675781 -2.148438 -0.8125 -1.921875 C -0.957031 -1.691406 -1.066406 -1.503906 -1.140625 -1.359375 C -1.253906 -1.140625 -1.3125 -0.953125 -1.3125 -0.796875 Z M -1.3125 -0.796875 "/></g></g><g transform="translate(390.123244, 102.671495)"><g><path d="M 6.0625 -2.171875 C 5.726562 -2.171875 5.484375 -2.304688 5.328125 -2.578125 C 4.265625 -1.359375 3.113281 -0.550781 1.875 -0.15625 C 1.457031 -0.03125 1.050781 0.03125 0.65625 0.03125 C 0.269531 0.03125 -0.0546875 -0.015625 -0.328125 -0.109375 C -0.609375 -0.203125 -0.835938 -0.328125 -1.015625 -0.484375 C -1.742188 -1.109375 -1.816406 -2.191406 -1.234375 -3.734375 C -1.015625 -4.328125 -0.726562 -4.882812 -0.375 -5.40625 C -0.0195312 -5.925781 0.378906 -6.410156 0.828125 -6.859375 C 1.273438 -7.304688 1.753906 -7.703125 2.265625 -8.046875 C 3.421875 -8.828125 4.550781 -9.21875 5.65625 -9.21875 C 6.132812 -9.21875 6.546875 -9.09375 6.890625 -8.84375 C 7.234375 -8.601562 7.414062 -8.25 7.4375 -7.78125 C 7.46875 -7.320312 7.441406 -6.890625 7.359375 -6.484375 C 7.285156 -6.085938 7.164062 -5.6875 7 -5.28125 C 6.675781 -4.457031 6.21875 -3.675781 5.625 -2.9375 C 5.6875 -2.675781 5.859375 -2.546875 6.140625 -2.546875 C 6.429688 -2.546875 6.703125 -2.609375 6.953125 -2.734375 C 7.210938 -2.867188 7.46875 -3.03125 7.71875 -3.21875 C 7.976562 -3.414062 8.226562 -3.632812 8.46875 -3.875 C 8.71875 -4.113281 8.945312 -4.335938 9.15625 -4.546875 L 9.671875 -5.109375 C 9.816406 -5.285156 9.921875 -5.40625 9.984375 -5.46875 L 10.28125 -5.234375 C 10.15625 -5.128906 10.003906 -4.976562 9.828125 -4.78125 C 9.648438 -4.582031 9.445312 -4.367188 9.21875 -4.140625 C 9.21875 -4.140625 8.984375 -3.910156 8.515625 -3.453125 C 7.585938 -2.597656 6.769531 -2.171875 6.0625 -2.171875 Z M 0.46875 -0.484375 C 0.613281 -0.410156 0.816406 -0.375 1.078125 -0.375 C 1.660156 -0.375 2.410156 -0.703125 3.328125 -1.359375 C 4.023438 -1.859375 4.648438 -2.4375 5.203125 -3.09375 L 5.203125 -3.15625 C 5.203125 -3.914062 5.488281 -4.488281 6.0625 -4.875 C 6.207031 -4.976562 6.347656 -5.054688 6.484375 -5.109375 C 6.921875 -6.023438 7.125 -6.773438 7.09375 -7.359375 C 7.039062 -8.273438 6.703125 -8.734375 6.078125 -8.734375 C 5.015625 -8.734375 3.523438 -7.539062 1.609375 -5.15625 C 0.378906 -3.613281 -0.195312 -2.410156 -0.125 -1.546875 C -0.125 -1.054688 0.0703125 -0.703125 0.46875 -0.484375 Z M 0.46875 -0.484375 "/></g></g><g transform="translate(400.008988, 102.671495)"><g><path d="M 4.9375 0.03125 C 3.894531 0.03125 3.375 -0.414062 3.375 -1.3125 C 3.375 -2.65625 4.851562 -4.410156 7.8125 -6.578125 C 8.832031 -7.316406 9.394531 -7.851562 9.5 -8.1875 C 9.53125 -8.28125 9.546875 -8.375 9.546875 -8.46875 C 9.546875 -8.570312 9.5 -8.664062 9.40625 -8.75 C 9.3125 -8.84375 9.113281 -8.890625 8.8125 -8.890625 C 7.394531 -8.890625 5.207031 -7.507812 2.25 -4.75 C 0.863281 -3.425781 -0.0976562 -2.46875 -0.640625 -1.875 L -2.0625 -0.25 C -2.4375 0.238281 -2.851562 0.8125 -3.3125 1.46875 L -6.0625 5.578125 L -8.109375 8.8125 C -8.335938 9.164062 -8.472656 9.375 -8.515625 9.4375 C -8.773438 9.507812 -9.0625 9.546875 -9.375 9.546875 C -9.695312 9.546875 -9.898438 9.539062 -9.984375 9.53125 C -10.066406 9.53125 -10.160156 9.523438 -10.265625 9.515625 C -10.429688 9.503906 -10.597656 9.472656 -10.765625 9.421875 L -3.875 0.078125 L 0.484375 -6.0625 L 5.796875 -13.15625 C 6.273438 -13.101562 6.632812 -13.078125 6.875 -13.078125 C 7.320312 -13.078125 7.640625 -13.109375 7.828125 -13.171875 L 3.484375 -7.859375 L 0.28125 -3.578125 L 0.375 -3.46875 C 3.164062 -6.15625 5.226562 -7.84375 6.5625 -8.53125 C 7.238281 -8.894531 7.742188 -9.097656 8.078125 -9.140625 C 8.421875 -9.191406 8.726562 -9.21875 9 -9.21875 C 9.851562 -9.21875 10.28125 -8.847656 10.28125 -8.109375 C 10.28125 -6.628906 8.925781 -4.945312 6.21875 -3.0625 C 5.007812 -2.1875 4.316406 -1.585938 4.140625 -1.265625 C 4.085938 -1.160156 4.0625 -1.054688 4.0625 -0.953125 C 4.0625 -0.546875 4.378906 -0.34375 5.015625 -0.34375 C 6.566406 -0.34375 8.539062 -1.769531 10.9375 -4.625 L 11.640625 -5.46875 L 11.9375 -5.234375 L 11.25 -4.4375 C 8.738281 -1.457031 6.632812 0.03125 4.9375 0.03125 Z M 4.9375 0.03125 "/></g></g><g transform="translate(411.564803, 102.671495)"><g><path d="M 5.203125 -1.15625 C 4.628906 -0.800781 4.015625 -0.503906 3.359375 -0.265625 C 2.703125 -0.0351562 2.078125 0.078125 1.484375 0.078125 C 0.890625 0.078125 0.4375 0.0195312 0.125 -0.09375 C -0.1875 -0.21875 -0.441406 -0.390625 -0.640625 -0.609375 C -1.484375 -1.523438 -1.476562 -2.875 -0.625 -4.65625 C -0.25 -5.445312 0.304688 -6.164062 1.046875 -6.8125 C 1.796875 -7.46875 2.453125 -7.957031 3.015625 -8.28125 C 4.109375 -8.90625 5.132812 -9.21875 6.09375 -9.21875 C 7.050781 -9.21875 7.550781 -8.921875 7.59375 -8.328125 C 7.65625 -7.367188 6.488281 -6.328125 4.09375 -5.203125 C 3.21875 -4.785156 2.109375 -4.359375 0.765625 -3.921875 C 0.234375 -3.054688 -0.03125 -2.351562 -0.03125 -1.8125 C -0.03125 -1.269531 0.109375 -0.882812 0.390625 -0.65625 C 0.679688 -0.425781 1.097656 -0.3125 1.640625 -0.3125 C 2.179688 -0.3125 2.765625 -0.425781 3.390625 -0.65625 C 4.023438 -0.894531 4.617188 -1.191406 5.171875 -1.546875 C 5.722656 -1.910156 6.222656 -2.300781 6.671875 -2.71875 C 7.128906 -3.144531 7.53125 -3.550781 7.875 -3.9375 C 8.21875 -4.320312 8.5 -4.65625 8.71875 -4.9375 C 8.9375 -5.21875 9.085938 -5.394531 9.171875 -5.46875 L 9.453125 -5.234375 C 9.335938 -5.140625 9.160156 -4.9375 8.921875 -4.625 C 8.679688 -4.320312 8.378906 -3.972656 8.015625 -3.578125 C 7.648438 -3.191406 7.234375 -2.78125 6.765625 -2.34375 C 6.296875 -1.914062 5.773438 -1.519531 5.203125 -1.15625 Z M 1.078125 -4.390625 C 3.785156 -5.335938 5.53125 -6.285156 6.3125 -7.234375 C 6.570312 -7.546875 6.703125 -7.847656 6.703125 -8.140625 C 6.703125 -8.648438 6.46875 -8.90625 6 -8.90625 C 5.175781 -8.90625 4.144531 -8.179688 2.90625 -6.734375 C 2.039062 -5.722656 1.429688 -4.941406 1.078125 -4.390625 Z M 1.078125 -4.390625 "/></g></g><g transform="translate(420.642448, 102.671495)"><g><path d="M 2.328125 -1.0625 C 2.328125 -0.644531 2.503906 -0.4375 2.859375 -0.4375 C 3.210938 -0.4375 3.601562 -0.539062 4.03125 -0.75 C 4.457031 -0.96875 4.890625 -1.242188 5.328125 -1.578125 C 5.773438 -1.910156 6.21875 -2.28125 6.65625 -2.6875 L 7.828125 -3.84375 C 8.179688 -4.21875 8.488281 -4.550781 8.75 -4.84375 L 9.3125 -5.46875 L 9.578125 -5.234375 C 9.398438 -5.085938 9.171875 -4.851562 8.890625 -4.53125 L 7.921875 -3.453125 C 5.722656 -1.128906 3.835938 0.03125 2.265625 0.03125 C 1.753906 0.03125 1.34375 -0.09375 1.03125 -0.34375 C 0.71875 -0.601562 0.5625 -0.941406 0.5625 -1.359375 C 0.5625 -2.691406 2.507812 -4.664062 6.40625 -7.28125 C 4.507812 -7.59375 3.195312 -7.910156 2.46875 -8.234375 C 1.875 -7.015625 0.960938 -5.773438 -0.265625 -4.515625 C -0.554688 -4.210938 -0.734375 -4.046875 -0.796875 -4.015625 C -0.867188 -3.992188 -0.910156 -3.976562 -0.921875 -3.96875 C -0.941406 -3.957031 -0.957031 -3.984375 -0.96875 -4.046875 C -0.976562 -4.109375 -0.976562 -4.15625 -0.96875 -4.1875 C -0.957031 -4.21875 -0.941406 -4.25 -0.921875 -4.28125 C -0.492188 -4.757812 -0.101562 -5.21875 0.25 -5.65625 C 1.09375 -6.695312 1.707031 -7.617188 2.09375 -8.421875 C 1.769531 -8.628906 1.585938 -8.847656 1.546875 -9.078125 C 1.503906 -9.316406 1.503906 -9.535156 1.546875 -9.734375 C 1.597656 -9.941406 1.679688 -10.125 1.796875 -10.28125 C 2.023438 -10.632812 2.289062 -10.8125 2.59375 -10.8125 C 3.164062 -10.8125 3.453125 -10.601562 3.453125 -10.1875 C 3.453125 -9.988281 3.410156 -9.816406 3.328125 -9.671875 L 3.078125 -9.25 C 2.921875 -9.039062 2.84375 -8.800781 2.84375 -8.53125 C 2.84375 -8.375 3.1875 -8.222656 3.875 -8.078125 C 4.5625 -7.929688 5.046875 -7.832031 5.328125 -7.78125 C 5.960938 -7.664062 6.460938 -7.597656 6.828125 -7.578125 C 7.078125 -7.566406 7.203125 -7.5 7.203125 -7.375 C 7.203125 -7.300781 7.054688 -7.144531 6.765625 -6.90625 C 6.472656 -6.675781 6.148438 -6.394531 5.796875 -6.0625 C 5.453125 -5.726562 5.113281 -5.378906 4.78125 -5.015625 C 4.445312 -4.648438 4.128906 -4.28125 3.828125 -3.90625 C 3.535156 -3.53125 3.28125 -3.164062 3.0625 -2.8125 C 2.570312 -2.0625 2.328125 -1.476562 2.328125 -1.0625 Z M 2.328125 -1.0625 "/></g></g></g></svg>